<svg xmlns="http://www.w3.org/2000/svg" viewBox="0 0 331 536"><path fill="#2F2C25" d="M89.6 7.3a1.8 1.8 0 1 0 0-3.6 1.8 1.8 0 0 0 0 3.6m8.9 0a1.8 1.8 0 1 0 0-3.6 1.8 1.8 0 0 0 0 3.6m8.9 0a1.8 1.8 0 1 0 0-3.6 1.8 1.8 0 0 0 0 3.6m8.9 0a1.8 1.8 0 1 0 0-3.6 1.8 1.8 0 0 0 0 3.6m9 0a1.8 1.8 0 1 0 0-3.6 1.8 1.8 0 0 0 0 3.6m8.9 0a1.8 1.8 0 1 0 0-3.6 1.8 1.8 0 0 0 0 3.6m8.8 0a1.8 1.8 0 1 0 0-3.6 1.8 1.8 0 0 0 0 3.6m9 0a1.8 1.8 0 1 0 0-3.6 1.8 1.8 0 0 0 0 3.6M85.1 15a1.8 1.8 0 1 0 0-3.5 1.8 1.8 0 0 0 0 3.5m8.9 0a1.8 1.8 0 1 0 0-3.5 1.8 1.8 0 0 0 0 3.5m9 0a1.8 1.8 0 1 0 0-3.5 1.8 1.8 0 0 0 0 3.5m8.9 0a1.8 1.8 0 1 0 0-3.5 1.8 1.8 0 0 0 0 3.5m8.9 0a1.8 1.8 0 1 0 0-3.5 1.8 1.8 0 0 0 0 3.5m8.9 0a1.8 1.8 0 1 0 0-3.5 1.8 1.8 0 0 0 0 3.5m8.9 0a1.8 1.8 0 1 0 0-3.5 1.8 1.8 0 0 0 0 3.5m8.9 0a1.8 1.8 0 1 0 0-3.5 1.8 1.8 0 0 0 0 3.5m-66.8 7.7a1.8 1.8 0 1 0 0-3.5 1.8 1.8 0 0 0 0 3.5m8.9 0a1.8 1.8 0 1 0 0-3.5 1.8 1.8 0 0 0 0 3.5m8.9 0a1.8 1.8 0 1 0 0-3.5 1.8 1.8 0 0 0 0 3.5m8.9 0a1.8 1.8 0 1 0 0-3.5 1.8 1.8 0 0 0 0 3.5m8.9 0a1.8 1.8 0 1 0 0-3.5 1.8 1.8 0 0 0 0 3.5m9 0a1.8 1.8 0 1 0 0-3.5 1.8 1.8 0 0 0 0 3.5m8.9 0a1.8 1.8 0 1 0 0-3.5 1.8 1.8 0 0 0 0 3.5m8.8 0a1.8 1.8 0 1 0 0-3.5 1.8 1.8 0 0 0 0 3.5m-57.9 7.8a1.8 1.8 0 1 0 0-3.6 1.8 1.8 0 0 0 0 3.6m8.9 0a1.8 1.8 0 1 0 0-3.6 1.8 1.8 0 0 0 0 3.6m9 0a1.8 1.8 0 1 0 0-3.6 1.8 1.8 0 0 0 0 3.6m8.9 0a1.8 1.8 0 1 0 0-3.6 1.8 1.8 0 0 0 0 3.6m8.9 0a1.8 1.8 0 1 0 0-3.6 1.8 1.8 0 0 0 0 3.6m8.9 0a1.8 1.8 0 1 0 0-3.6 1.8 1.8 0 0 0 0 3.6m8.9 0a1.8 1.8 0 1 0 0-3.6 1.8 1.8 0 0 0 0 3.6m-57.9 7.7a1.8 1.8 0 1 0 0-3.6 1.8 1.8 0 0 0 0 3.6m8.9 0a1.8 1.8 0 1 0 0-3.6 1.8 1.8 0 0 0 0 3.6m8.9 0a1.8 1.8 0 1 0 0-3.6 1.8 1.8 0 0 0 0 3.6m8.9 0a1.8 1.8 0 1 0 0-3.6 1.8 1.8 0 0 0 0 3.6m8.9 0a1.8 1.8 0 1 0 0-3.6 1.8 1.8 0 0 0 0 3.6m9 0a1.8 1.8 0 1 0 0-3.6 1.8 1.8 0 0 0 0 3.6m8.9 0a1.8 1.8 0 1 0 0-3.6 1.8 1.8 0 0 0 0 3.6m8.8 0a1.8 1.8 0 1 0 0-3.6 1.8 1.8 0 0 0 0 3.6m-66.8 7.7a1.8 1.8 0 1 0 0-3.6 1.8 1.8 0 0 0 0 3.6m8.9 0a1.8 1.8 0 1 0 0-3.6 1.8 1.8 0 0 0 0 3.6m8.9 0a1.8 1.8 0 1 0 0-3.6 1.8 1.8 0 0 0 0 3.6m9 0a1.8 1.8 0 1 0 0-3.6 1.8 1.8 0 0 0 0 3.6m8.9 0a1.8 1.8 0 1 0 0-3.6 1.8 1.8 0 0 0 0 3.6m8.9 0a1.8 1.8 0 1 0 0-3.6 1.8 1.8 0 0 0 0 3.6m8.9 0a1.8 1.8 0 1 0 0-3.6 1.8 1.8 0 0 0 0 3.6m8.9 0a1.8 1.8 0 1 0 0-3.6 1.8 1.8 0 0 0 0 3.6m-66.9 7.7a1.8 1.8 0 1 0 0-3.6 1.8 1.8 0 0 0 0 3.6m9 0a1.8 1.8 0 1 0 0-3.6 1.8 1.8 0 0 0 0 3.6m8.9 0a1.8 1.8 0 1 0 0-3.6 1.8 1.8 0 0 0 0 3.6m8.9 0a1.8 1.8 0 1 0 0-3.6 1.8 1.8 0 0 0 0 3.6m8.9 0a1.8 1.8 0 1 0 0-3.6 1.8 1.8 0 0 0 0 3.6m8.9 0a1.8 1.8 0 1 0 0-3.6 1.8 1.8 0 0 0 0 3.6m9 0a1.8 1.8 0 1 0 0-3.6 1.8 1.8 0 0 0 0 3.6m8.9 0a1.8 1.8 0 1 0 0-3.6 1.8 1.8 0 0 0 0 3.6m-66.9 7.7a1.8 1.8 0 1 0 0-3.5 1.8 1.8 0 0 0 0 3.5m8.9 0a1.8 1.8 0 1 0 0-3.5 1.8 1.8 0 0 0 0 3.5m8.9 0a1.8 1.8 0 1 0 0-3.5 1.8 1.8 0 0 0 0 3.5m8.9 0a1.8 1.8 0 1 0 0-3.5 1.8 1.8 0 0 0 0 3.5m9 0a1.8 1.8 0 1 0 0-3.5 1.8 1.8 0 0 0 0 3.5m8.9 0a1.8 1.8 0 1 0 0-3.5 1.8 1.8 0 0 0 0 3.5m8.9 0a1.8 1.8 0 1 0 0-3.5 1.8 1.8 0 0 0 0 3.5m8.9 0a1.8 1.8 0 1 0 0-3.5 1.8 1.8 0 0 0 0 3.5M62.8 69a1.8 1.8 0 1 0 0-3.5 1.8 1.8 0 0 0 0 3.5m8.9 0a1.8 1.8 0 1 0 0-3.5 1.8 1.8 0 0 0 0 3.5m9 0a1.8 1.8 0 1 0 0-3.5 1.8 1.8 0 0 0 0 3.5m8.9 0a1.8 1.8 0 1 0 0-3.5 1.8 1.8 0 0 0 0 3.5m8.9 0a1.8 1.8 0 1 0 0-3.5 1.8 1.8 0 0 0 0 3.5m8.9 0a1.8 1.8 0 1 0 0-3.5 1.8 1.8 0 0 0 0 3.5m8.9 0a1.8 1.8 0 1 0 0-3.5 1.8 1.8 0 0 0 0 3.5m9 0a1.8 1.8 0 1 0 0-3.5 1.8 1.8 0 0 0 0 3.5m17.7 0a1.8 1.8 0 1 0 0-3.5 1.8 1.8 0 0 0 0 3.5m9 0a1.8 1.8 0 1 0 0-3.5 1.8 1.8 0 0 0 0 3.5m9 0a1.8 1.8 0 1 0 0-3.5 1.8 1.8 0 0 0 0 3.5m8.8 0a1.8 1.8 0 1 0 0-3.5 1.8 1.8 0 0 0 0 3.5m9 0a1.8 1.8 0 1 0 0-3.5 1.8 1.8 0 0 0 0 3.5m8.9 0a1.8 1.8 0 1 0 0-3.5 1.8 1.8 0 0 0 0 3.5m8.9 0a1.8 1.8 0 1 0 0-3.5 1.8 1.8 0 0 0 0 3.5M67.3 76.8a1.8 1.8 0 1 0 0-3.6 1.8 1.8 0 0 0 0 3.6m8.9 0a1.8 1.8 0 1 0 0-3.6 1.8 1.8 0 0 0 0 3.6m8.9 0a1.8 1.8 0 1 0 0-3.6 1.8 1.8 0 0 0 0 3.6m8.9 0a1.8 1.8 0 1 0 0-3.6 1.8 1.8 0 0 0 0 3.6m9 0a1.8 1.8 0 1 0 0-3.6 1.8 1.8 0 0 0 0 3.6m8.9 0a1.8 1.8 0 1 0 0-3.6 1.8 1.8 0 0 0 0 3.6m8.9 0a1.8 1.8 0 1 0 0-3.6 1.8 1.8 0 0 0 0 3.6m8.9 0a1.8 1.8 0 1 0 0-3.6 1.8 1.8 0 0 0 0 3.6m8.9 0a1.8 1.8 0 1 0 0-3.6 1.8 1.8 0 0 0 0 3.6m8.9 0a1.8 1.8 0 1 0 0-3.6 1.8 1.8 0 0 0 0 3.6m9 0a1.8 1.8 0 1 0 0-3.6 1.8 1.8 0 0 0 0 3.6m8.9 0a1.8 1.8 0 1 0 0-3.6 1.8 1.8 0 0 0 0 3.6m8.9 0a1.8 1.8 0 1 0 0-3.6 1.8 1.8 0 0 0 0 3.6m8.9 0a1.8 1.8 0 1 0 0-3.6 1.8 1.8 0 0 0 0 3.6m8.9 0a1.8 1.8 0 1 0 0-3.6 1.8 1.8 0 0 0 0 3.6M62.8 84.5a1.8 1.8 0 1 0 0-3.6 1.8 1.8 0 0 0 0 3.6m8.9 0a1.8 1.8 0 1 0 0-3.6 1.8 1.8 0 0 0 0 3.6m9 0a1.8 1.8 0 1 0 0-3.6 1.8 1.8 0 0 0 0 3.6m8.9 0a1.8 1.8 0 1 0 0-3.6 1.8 1.8 0 0 0 0 3.6m8.9 0a1.8 1.8 0 1 0 0-3.6 1.8 1.8 0 0 0 0 3.6m8.9 0a1.8 1.8 0 1 0 0-3.6 1.8 1.8 0 0 0 0 3.6m8.9 0a1.8 1.8 0 1 0 0-3.6 1.8 1.8 0 0 0 0 3.6m9 0a1.8 1.8 0 1 0 0-3.6 1.8 1.8 0 0 0 0 3.6m8.9 0a1.8 1.8 0 1 0 0-3.6 1.8 1.8 0 0 0 0 3.6m8.8 0a1.8 1.8 0 1 0 0-3.6 1.8 1.8 0 0 0 0 3.6m9 0a1.8 1.8 0 1 0 0-3.6 1.8 1.8 0 0 0 0 3.6m9 0a1.8 1.8 0 1 0 0-3.6 1.8 1.8 0 0 0 0 3.6m8.8 0a1.8 1.8 0 1 0 0-3.6 1.8 1.8 0 0 0 0 3.6m9 0a1.8 1.8 0 1 0 0-3.6 1.8 1.8 0 0 0 0 3.6m8.9 0a1.8 1.8 0 1 0 0-3.6 1.8 1.8 0 0 0 0 3.6m8.9 0a1.8 1.8 0 1 0 0-3.6 1.8 1.8 0 0 0 0 3.6M58.4 92.2a1.8 1.8 0 1 0 0-3.6 1.8 1.8 0 0 0 0 3.6m8.9 0a1.8 1.8 0 1 0 0-3.6 1.8 1.8 0 0 0 0 3.6m8.9 0a1.8 1.8 0 1 0 0-3.6 1.8 1.8 0 0 0 0 3.6m8.9 0a1.8 1.8 0 1 0 0-3.6 1.8 1.8 0 0 0 0 3.6m8.9 0a1.8 1.8 0 1 0 0-3.6 1.8 1.8 0 0 0 0 3.6m9 0a1.8 1.8 0 1 0 0-3.6 1.8 1.8 0 0 0 0 3.6m8.9 0a1.8 1.8 0 1 0 0-3.6 1.8 1.8 0 0 0 0 3.6m8.9 0a1.8 1.8 0 1 0 0-3.6 1.8 1.8 0 0 0 0 3.6m8.9 0a1.8 1.8 0 1 0 0-3.6 1.8 1.8 0 0 0 0 3.6m8.9 0a1.8 1.8 0 1 0 0-3.6 1.8 1.8 0 0 0 0 3.6m8.9 0a1.8 1.8 0 1 0 0-3.6 1.8 1.8 0 0 0 0 3.6m9 0a1.8 1.8 0 1 0 0-3.6 1.8 1.8 0 0 0 0 3.6m8.9 0a1.8 1.8 0 1 0 0-3.6 1.8 1.8 0 0 0 0 3.6m8.9 0a1.8 1.8 0 1 0 0-3.6 1.8 1.8 0 0 0 0 3.6m8.9 0a1.8 1.8 0 1 0 0-3.6 1.8 1.8 0 0 0 0 3.6m8.9 0a1.8 1.8 0 1 0 0-3.6 1.8 1.8 0 0 0 0 3.6M62.8 100a1.8 1.8 0 1 0 0-3.7 1.8 1.8 0 0 0 0 3.6m8.9.1a1.8 1.8 0 1 0 0-3.7 1.8 1.8 0 0 0 0 3.6m9 .1a1.8 1.8 0 1 0 0-3.7 1.8 1.8 0 0 0 0 3.6m8.9.1a1.8 1.8 0 1 0 0-3.7 1.8 1.8 0 0 0 0 3.6m8.9.1a1.8 1.8 0 1 0 0-3.7 1.8 1.8 0 0 0 0 3.6m8.9.1a1.8 1.8 0 1 0 0-3.7 1.8 1.8 0 0 0 0 3.6m8.9.1a1.8 1.8 0 1 0 0-3.7 1.8 1.8 0 0 0 0 3.6m9 .1a1.8 1.8 0 1 0 0-3.6 1.8 1.8 0 0 0 0 3.5m8.9.1a1.8 1.8 0 1 0 0-3.6 1.8 1.8 0 0 0 0 3.5m8.8.1a1.8 1.8 0 1 0 0-3.6 1.8 1.8 0 0 0 0 3.5m9 .1a1.8 1.8 0 1 0 0-3.6 1.8 1.8 0 0 0 0 3.5m9 .1a1.8 1.8 0 1 0 0-3.6 1.8 1.8 0 0 0 0 3.5m8.8.1a1.8 1.8 0 1 0 0-3.7 1.8 1.8 0 0 0 0 3.6m9 .1a1.8 1.8 0 1 0 0-3.7 1.8 1.8 0 0 0 0 3.6m8.9.1a1.8 1.8 0 1 0 0-3.7 1.8 1.8 0 0 0 0 3.6m-129.3 7.7a1.8 1.8 0 1 0 0-3.5 1.8 1.8 0 0 0 0 3.5m8.9 0a1.8 1.8 0 1 0 0-3.5 1.8 1.8 0 0 0 0 3.5m8.9 0a1.8 1.8 0 1 0 0-3.5 1.8 1.8 0 0 0 0 3.5m8.9 0a1.8 1.8 0 1 0 0-3.5 1.8 1.8 0 0 0 0 3.5m8.9 0a1.8 1.8 0 1 0 0-3.5 1.8 1.8 0 0 0 0 3.5m9 0a1.8 1.8 0 1 0 0-3.5 1.8 1.8 0 0 0 0 3.5m8.9 0a1.8 1.8 0 1 0 0-3.5 1.8 1.8 0 0 0 0 3.5m8.9 0a1.8 1.8 0 1 0 0-3.5 1.8 1.8 0 0 0 0 3.5m8.9 0a1.8 1.8 0 1 0 0-3.5 1.8 1.8 0 0 0 0 3.5m8.9 0a1.8 1.8 0 1 0 0-3.5 1.8 1.8 0 0 0 0 3.5m8.9 0a1.8 1.8 0 1 0 0-3.5 1.8 1.8 0 0 0 0 3.5m9 0a1.8 1.8 0 1 0 0-3.5 1.8 1.8 0 0 0 0 3.5m8.9 0a1.8 1.8 0 1 0 0-3.5 1.8 1.8 0 0 0 0 3.5m8.9 0a1.8 1.8 0 1 0 0-3.5 1.8 1.8 0 0 0 0 3.5m8.9 0a1.8 1.8 0 1 0 0-3.5 1.8 1.8 0 0 0 0 3.5m8.9 0a1.8 1.8 0 1 0 0-3.5 1.8 1.8 0 0 0 0 3.5m-138.2 7.8a1.8 1.8 0 1 0 0-3.6 1.8 1.8 0 0 0 0 3.5m8.9.1a1.8 1.8 0 1 0 0-3.6 1.8 1.8 0 0 0 0 3.5m8.9.1a1.8 1.8 0 1 0 0-3.6 1.8 1.8 0 0 0 0 3.5m9 .1a1.8 1.8 0 1 0 0-3.6 1.8 1.8 0 0 0 0 3.5m8.9.1a1.8 1.8 0 1 0 0-3.6 1.8 1.8 0 0 0 0 3.5m8.9.1a1.8 1.8 0 1 0 0-3.6 1.8 1.8 0 0 0 0 3.5m8.9.1a1.8 1.8 0 1 0 0-3.6 1.8 1.8 0 0 0 0 3.5m8.9.1a1.8 1.8 0 1 0 0-3.6 1.8 1.8 0 0 0 0 3.5m9 .1a1.8 1.8 0 1 0 0-3.6 1.8 1.8 0 0 0 0 3.5m8.9.1a1.8 1.8 0 1 0 0-3.6 1.8 1.8 0 0 0 0 3.5m8.8.1a1.8 1.8 0 1 0 0-3.6 1.8 1.8 0 0 0 0 3.5m9 .1a1.8 1.8 0 1 0 0-3.6 1.8 1.8 0 0 0 0 3.5m9 .1a1.8 1.8 0 1 0 0-3.6 1.8 1.8 0 0 0 0 3.5m8.8.1a1.8 1.8 0 1 0 0-3.6 1.8 1.8 0 0 0 0 3.5m9 .1a1.8 1.8 0 1 0 0-3.6 1.8 1.8 0 0 0 0 3.5m8.9.1a1.8 1.8 0 1 0 0-3.6 1.8 1.8 0 0 0 0 3.5M58.4 123a1.8 1.8 0 1 0 0-3.5 1.8 1.8 0 0 0 0 3.6m8.9-.1a1.8 1.8 0 1 0 0-3.5 1.8 1.8 0 0 0 0 3.6m8.9-.1a1.8 1.8 0 1 0 0-3.5 1.8 1.8 0 0 0 0 3.6m8.9-.1a1.8 1.8 0 1 0 0-3.5 1.8 1.8 0 0 0 0 3.6m8.9-.1a1.8 1.8 0 1 0 0-3.5 1.8 1.8 0 0 0 0 3.6m9-.1a1.8 1.8 0 1 0 0-3.5 1.8 1.8 0 0 0 0 3.6m8.9-.1a1.8 1.8 0 1 0 0-3.5 1.8 1.8 0 0 0 0 3.6m8.9-.1a1.8 1.8 0 1 0 0-3.5 1.8 1.8 0 0 0 0 3.6m8.9-.1a1.8 1.8 0 1 0 0-3.5 1.8 1.8 0 0 0 0 3.6m8.9-.1a1.8 1.8 0 1 0 0-3.5 1.8 1.8 0 0 0 0 3.6m8.9-.1a1.8 1.8 0 1 0 0-3.5 1.8 1.8 0 0 0 0 3.6m9-.1a1.8 1.8 0 1 0 0-3.5 1.8 1.8 0 0 0 0 3.6m8.9-.1a1.8 1.8 0 1 0 0-3.5 1.8 1.8 0 0 0 0 3.6m8.9-.1a1.8 1.8 0 1 0 0-3.5 1.8 1.8 0 0 0 0 3.6m8.9-.1a1.8 1.8 0 1 0 0-3.5 1.8 1.8 0 0 0 0 3.6m-120.4 7.7a1.8 1.8 0 1 0 0-3.6 1.8 1.8 0 0 0 0 3.6m8.9 0a1.8 1.8 0 1 0 0-3.6 1.8 1.8 0 0 0 0 3.6m9 0a1.8 1.8 0 1 0 0-3.6 1.8 1.8 0 0 0 0 3.6m8.9 0a1.8 1.8 0 1 0 0-3.6 1.8 1.8 0 0 0 0 3.6m8.9 0a1.8 1.8 0 1 0 0-3.6 1.8 1.8 0 0 0 0 3.6m8.9 0a1.8 1.8 0 1 0 0-3.6 1.8 1.8 0 0 0 0 3.6m8.9 0a1.8 1.8 0 1 0 0-3.6 1.8 1.8 0 0 0 0 3.6m9 0a1.8 1.8 0 1 0 0-3.6 1.8 1.8 0 0 0 0 3.6m8.9 0a1.8 1.8 0 1 0 0-3.6 1.8 1.8 0 0 0 0 3.6m8.8 0a1.8 1.8 0 1 0 0-3.6 1.8 1.8 0 0 0 0 3.6m9 0a1.8 1.8 0 1 0 0-3.6 1.8 1.8 0 0 0 0 3.6m9 0a1.8 1.8 0 1 0 0-3.6 1.8 1.8 0 0 0 0 3.6m8.8 0a1.8 1.8 0 1 0 0-3.6 1.8 1.8 0 0 0 0 3.6m9 0a1.8 1.8 0 1 0 0-3.6 1.8 1.8 0 0 0 0 3.6m-111.5 7.7a1.8 1.8 0 1 0 0-3.6 1.8 1.8 0 0 0 0 3.6m8.9 0a1.8 1.8 0 1 0 0-3.6 1.8 1.8 0 0 0 0 3.6m8.9 0a1.8 1.8 0 1 0 0-3.6 1.8 1.8 0 0 0 0 3.6m8.9 0a1.8 1.8 0 1 0 0-3.6 1.8 1.8 0 0 0 0 3.6m9 0a1.8 1.8 0 1 0 0-3.6 1.8 1.8 0 0 0 0 3.6m8.9 0a1.8 1.8 0 1 0 0-3.6 1.8 1.8 0 0 0 0 3.6m8.9 0a1.8 1.8 0 1 0 0-3.6 1.8 1.8 0 0 0 0 3.6m8.9 0a1.8 1.8 0 1 0 0-3.6 1.8 1.8 0 0 0 0 3.6m8.9 0a1.8 1.8 0 1 0 0-3.6 1.8 1.8 0 0 0 0 3.6m8.9 0a1.8 1.8 0 1 0 0-3.6 1.8 1.8 0 0 0 0 3.6m9 0a1.8 1.8 0 1 0 0-3.6 1.8 1.8 0 0 0 0 3.6m8.9 0a1.8 1.8 0 1 0 0-3.6 1.8 1.8 0 0 0 0 3.6m8.9 0a1.8 1.8 0 1 0 0-3.6 1.8 1.8 0 0 0 0 3.6m-102.6 7.7a1.8 1.8 0 1 0 0-3.5 1.8 1.8 0 0 0 0 3.5m9 0a1.8 1.8 0 1 0 0-3.5 1.8 1.8 0 0 0 0 3.5m8.9 0a1.8 1.8 0 1 0 0-3.5 1.8 1.8 0 0 0 0 3.5m8.9 0a1.8 1.8 0 1 0 0-3.5 1.8 1.8 0 0 0 0 3.5m8.9 0a1.8 1.8 0 1 0 0-3.5 1.8 1.8 0 0 0 0 3.5m8.9 0a1.8 1.8 0 1 0 0-3.5 1.8 1.8 0 0 0 0 3.5m9 0a1.8 1.8 0 1 0 0-3.5 1.8 1.8 0 0 0 0 3.5m8.9 0a1.8 1.8 0 1 0 0-3.5 1.8 1.8 0 0 0 0 3.5m8.8 0a1.8 1.8 0 1 0 0-3.5 1.8 1.8 0 0 0 0 3.5m9 0a1.8 1.8 0 1 0 0-3.5 1.8 1.8 0 0 0 0 3.5m9 0a1.8 1.8 0 1 0 0-3.5 1.8 1.8 0 0 0 0 3.5m8.8 0a1.8 1.8 0 1 0 0-3.5 1.8 1.8 0 0 0 0 3.5M76.2 154a1.8 1.8 0 1 0 0-3.6 1.8 1.8 0 0 0 0 3.5m8.9.1a1.8 1.8 0 1 0 0-3.6 1.8 1.8 0 0 0 0 3.5m8.9.1a1.8 1.8 0 1 0 0-3.6 1.8 1.8 0 0 0 0 3.5m9 .1a1.8 1.8 0 1 0 0-3.6 1.8 1.8 0 0 0 0 3.5m8.9.1a1.8 1.8 0 1 0 0-3.6 1.8 1.8 0 0 0 0 3.5m8.9.1a1.8 1.8 0 1 0 0-3.6 1.8 1.8 0 0 0 0 3.5m8.9.1a1.8 1.8 0 1 0 0-3.6 1.8 1.8 0 0 0 0 3.5m8.9.1a1.8 1.8 0 1 0 0-3.6 1.8 1.8 0 0 0 0 3.5m8.9.1a1.8 1.8 0 1 0 0-3.6 1.8 1.8 0 0 0 0 3.5m9 .1a1.8 1.8 0 1 0 0-3.6 1.8 1.8 0 0 0 0 3.5m8.9.1a1.8 1.8 0 1 0 0-3.6 1.8 1.8 0 0 0 0 3.5m-93.7 7.8a1.8 1.8 0 1 0 0-3.6 1.8 1.8 0 0 0 0 3.6m9 0a1.8 1.8 0 1 0 0-3.6 1.8 1.8 0 0 0 0 3.6m8.9 0a1.8 1.8 0 1 0 0-3.6 1.8 1.8 0 0 0 0 3.6m8.9 0a1.8 1.8 0 1 0 0-3.6 1.8 1.8 0 0 0 0 3.6m8.9 0a1.8 1.8 0 1 0 0-3.6 1.8 1.8 0 0 0 0 3.6m8.9 0a1.8 1.8 0 1 0 0-3.6 1.8 1.8 0 0 0 0 3.6m9 0a1.8 1.8 0 1 0 0-3.6 1.8 1.8 0 0 0 0 3.6m8.9 0a1.8 1.8 0 1 0 0-3.6 1.8 1.8 0 0 0 0 3.6m8.8 0a1.8 1.8 0 1 0 0-3.6 1.8 1.8 0 0 0 0 3.6m9 0a1.8 1.8 0 1 0 0-3.6 1.8 1.8 0 0 0 0 3.6m9 0a1.8 1.8 0 1 0 0-3.6 1.8 1.8 0 0 0 0 3.6m-84.8 7.7a1.8 1.8 0 1 0 0-3.6 1.8 1.8 0 0 0 0 3.6m8.9 0a1.8 1.8 0 1 0 0-3.6 1.8 1.8 0 0 0 0 3.6m8.9 0a1.8 1.8 0 1 0 0-3.6 1.8 1.8 0 0 0 0 3.6m9 0a1.8 1.8 0 1 0 0-3.6 1.8 1.8 0 0 0 0 3.6m8.9 0a1.8 1.8 0 1 0 0-3.6 1.8 1.8 0 0 0 0 3.6m8.9 0a1.8 1.8 0 1 0 0-3.6 1.8 1.8 0 0 0 0 3.6m8.9 0a1.8 1.8 0 1 0 0-3.6 1.8 1.8 0 0 0 0 3.6m8.9 0a1.8 1.8 0 1 0 0-3.6 1.8 1.8 0 0 0 0 3.6m8.9 0a1.8 1.8 0 1 0 0-3.6 1.8 1.8 0 0 0 0 3.6m9 0a1.8 1.8 0 1 0 0-3.6 1.8 1.8 0 0 0 0 3.6M71.7 177a1.8 1.8 0 1 0 0-3.5 1.8 1.8 0 0 0 0 3.6m9-.1a1.8 1.8 0 1 0 0-3.5 1.8 1.8 0 0 0 0 3.6m8.9-.1a1.8 1.8 0 1 0 0-3.5 1.8 1.8 0 0 0 0 3.6m8.9-.1a1.8 1.8 0 1 0 0-3.5 1.8 1.8 0 0 0 0 3.6m8.9-.1a1.8 1.8 0 1 0 0-3.5 1.8 1.8 0 0 0 0 3.6m8.9-.1a1.8 1.8 0 1 0 0-3.5 1.8 1.8 0 0 0 0 3.6m9-.1a1.8 1.8 0 1 0 0-3.5 1.8 1.8 0 0 0 0 3.6m8.9-.1a1.8 1.8 0 1 0 0-3.5 1.8 1.8 0 0 0 0 3.6m8.8-.1a1.8 1.8 0 1 0 0-3.5 1.8 1.8 0 0 0 0 3.6m9-.1a1.8 1.8 0 1 0 0-3.5 1.8 1.8 0 0 0 0 3.6m9-.1a1.8 1.8 0 1 0 0-3.5 1.8 1.8 0 0 0 0 3.6m-84.8 7.7a1.8 1.8 0 1 0 0-3.6 1.8 1.8 0 0 0 0 3.6m8.9 0a1.8 1.8 0 1 0 0-3.6 1.8 1.8 0 0 0 0 3.6m8.9 0a1.8 1.8 0 1 0 0-3.6 1.8 1.8 0 0 0 0 3.6m9 0a1.8 1.8 0 1 0 0-3.6 1.8 1.8 0 0 0 0 3.6m8.9 0a1.8 1.8 0 1 0 0-3.6 1.8 1.8 0 0 0 0 3.6m8.9 0a1.8 1.8 0 1 0 0-3.6 1.8 1.8 0 0 0 0 3.6m8.9 0a1.8 1.8 0 1 0 0-3.6 1.8 1.8 0 0 0 0 3.6m8.9 0a1.8 1.8 0 1 0 0-3.6 1.8 1.8 0 0 0 0 3.6m8.9 0a1.8 1.8 0 1 0 0-3.6 1.8 1.8 0 0 0 0 3.6m9 0a1.8 1.8 0 1 0 0-3.6 1.8 1.8 0 0 0 0 3.6m8.9 0a1.8 1.8 0 1 0 0-3.6 1.8 1.8 0 0 0 0 3.6m8.9 0a1.8 1.8 0 1 0 0-3.6 1.8 1.8 0 0 0 0 3.6m8.9 0a1.8 1.8 0 1 0 0-3.6 1.8 1.8 0 0 0 0 3.6m8.9 0a1.8 1.8 0 1 0 0-3.6 1.8 1.8 0 0 0 0 3.6m-120.4 7.7a1.8 1.8 0 1 0 0-3.5 1.8 1.8 0 0 0 0 3.5m9 0a1.8 1.8 0 1 0 0-3.5 1.8 1.8 0 0 0 0 3.5m17.8 0a1.8 1.8 0 1 0 0-3.5 1.8 1.8 0 0 0 0 3.5m8.9 0a1.8 1.8 0 1 0 0-3.5 1.8 1.8 0 0 0 0 3.5m8.9 0a1.8 1.8 0 1 0 0-3.5 1.8 1.8 0 0 0 0 3.5m9 0a1.8 1.8 0 1 0 0-3.5 1.8 1.8 0 0 0 0 3.5m8.9 0a1.8 1.8 0 1 0 0-3.5 1.8 1.8 0 0 0 0 3.5m8.8 0a1.8 1.8 0 1 0 0-3.5 1.8 1.8 0 0 0 0 3.5m9 0a1.8 1.8 0 1 0 0-3.5 1.8 1.8 0 0 0 0 3.5m9 0a1.8 1.8 0 1 0 0-3.5 1.8 1.8 0 0 0 0 3.5m8.8 0a1.8 1.8 0 1 0 0-3.5 1.8 1.8 0 0 0 0 3.5m9 0a1.8 1.8 0 1 0 0-3.5 1.8 1.8 0 0 0 0 3.5m8.9 0a1.8 1.8 0 1 0 0-3.5 1.8 1.8 0 0 0 0 3.5m8.9 0a1.8 1.8 0 1 0 0-3.5 1.8 1.8 0 0 0 0 3.5m-120.4 7.7a1.8 1.8 0 1 0 0-3.5 1.8 1.8 0 0 0 0 3.5m26.8 0a1.8 1.8 0 1 0 0-3.5 1.8 1.8 0 0 0 0 3.5m8.9 0a1.8 1.8 0 1 0 0-3.5 1.8 1.8 0 0 0 0 3.5m8.9 0a1.8 1.8 0 1 0 0-3.5 1.8 1.8 0 0 0 0 3.5m8.9 0a1.8 1.8 0 1 0 0-3.5 1.8 1.8 0 0 0 0 3.5m8.9 0a1.8 1.8 0 1 0 0-3.5 1.8 1.8 0 0 0 0 3.5m8.9 0a1.8 1.8 0 1 0 0-3.5 1.8 1.8 0 0 0 0 3.5m9 0a1.8 1.8 0 1 0 0-3.5 1.8 1.8 0 0 0 0 3.5m8.9 0a1.8 1.8 0 1 0 0-3.5 1.8 1.8 0 0 0 0 3.5m8.9 0a1.8 1.8 0 1 0 0-3.5 1.8 1.8 0 0 0 0 3.5m8.9 0a1.8 1.8 0 1 0 0-3.5 1.8 1.8 0 0 0 0 3.5m8.9 0a1.8 1.8 0 1 0 0-3.5 1.8 1.8 0 0 0 0 3.5m8.9 0a1.8 1.8 0 1 0 0-3.5 1.8 1.8 0 0 0 0 3.5M71.7 208a1.8 1.8 0 1 0 0-3.6 1.8 1.8 0 0 0 0 3.6m35.7 0a1.8 1.8 0 1 0 0-3.6 1.8 1.8 0 0 0 0 3.6m8.9 0a1.8 1.8 0 1 0 0-3.6 1.8 1.8 0 0 0 0 3.6m9 0a1.8 1.8 0 1 0 0-3.6 1.8 1.8 0 0 0 0 3.6m8.9 0a1.8 1.8 0 1 0 0-3.6 1.8 1.8 0 0 0 0 3.6m8.8 0a1.8 1.8 0 1 0 0-3.6 1.8 1.8 0 0 0 0 3.6m9 0a1.8 1.8 0 1 0 0-3.6 1.8 1.8 0 0 0 0 3.6m9 0a1.8 1.8 0 1 0 0-3.6 1.8 1.8 0 0 0 0 3.6m8.8 0a1.8 1.8 0 1 0 0-3.6 1.8 1.8 0 0 0 0 3.6m9 0a1.8 1.8 0 1 0 0-3.6 1.8 1.8 0 0 0 0 3.6m8.9 0a1.8 1.8 0 1 0 0-3.6 1.8 1.8 0 0 0 0 3.6m8.9 0a1.8 1.8 0 1 0 0-3.6 1.8 1.8 0 0 0 0 3.6m8.9 0a1.8 1.8 0 1 0 0-3.6 1.8 1.8 0 0 0 0 3.6M103 215.7a1.8 1.8 0 1 0 0-3.6 1.8 1.8 0 0 0 0 3.6m8.9 0a1.8 1.8 0 1 0 0-3.6 1.8 1.8 0 0 0 0 3.6m8.9 0a1.8 1.8 0 1 0 0-3.6 1.8 1.8 0 0 0 0 3.6m8.9 0a1.8 1.8 0 1 0 0-3.6 1.8 1.8 0 0 0 0 3.6m8.9 0a1.8 1.8 0 1 0 0-3.6 1.8 1.8 0 0 0 0 3.6m8.9 0a1.8 1.8 0 1 0 0-3.6 1.8 1.8 0 0 0 0 3.6m9 0a1.8 1.8 0 1 0 0-3.6 1.8 1.8 0 0 0 0 3.6m8.9 0a1.8 1.8 0 1 0 0-3.6 1.8 1.8 0 0 0 0 3.6m8.9 0a1.8 1.8 0 1 0 0-3.6 1.8 1.8 0 0 0 0 3.6m8.9 0a1.8 1.8 0 1 0 0-3.6 1.8 1.8 0 0 0 0 3.6m8.9 0a1.8 1.8 0 1 0 0-3.6 1.8 1.8 0 0 0 0 3.6m8.9 0a1.8 1.8 0 1 0 0-3.6 1.8 1.8 0 0 0 0 3.6m9 0a1.8 1.8 0 1 0 0-3.6 1.8 1.8 0 0 0 0 3.6m-111.5 7.7a1.8 1.8 0 1 0 0-3.6 1.8 1.8 0 0 0 0 3.6m8.9 0a1.8 1.8 0 1 0 0-3.6 1.8 1.8 0 0 0 0 3.6m8.9 0a1.8 1.8 0 1 0 0-3.6 1.8 1.8 0 0 0 0 3.6m9 0a1.8 1.8 0 1 0 0-3.6 1.8 1.8 0 0 0 0 3.6m8.9 0a1.8 1.8 0 1 0 0-3.6 1.8 1.8 0 0 0 0 3.6m8.8 0a1.8 1.8 0 1 0 0-3.6 1.8 1.8 0 0 0 0 3.6m9 0a1.8 1.8 0 1 0 0-3.6 1.8 1.8 0 0 0 0 3.6m9 0a1.8 1.8 0 1 0 0-3.6 1.8 1.8 0 0 0 0 3.6m8.8 0a1.8 1.8 0 1 0 0-3.6 1.8 1.8 0 0 0 0 3.6m9 0a1.8 1.8 0 1 0 0-3.6 1.8 1.8 0 0 0 0 3.6m8.9 0a1.8 1.8 0 1 0 0-3.6 1.8 1.8 0 0 0 0 3.6m8.9 0a1.8 1.8 0 1 0 0-3.6 1.8 1.8 0 0 0 0 3.6m8.9 0a1.8 1.8 0 1 0 0-3.6 1.8 1.8 0 0 0 0 3.6m8.9 0a1.8 1.8 0 1 0 0-3.6 1.8 1.8 0 0 0 0 3.6M4.8 231.1a1.8 1.8 0 1 0 0-3.5 1.8 1.8 0 0 0 0 3.5m9 0a1.8 1.8 0 1 0 0-3.5 1.8 1.8 0 0 0 0 3.5m8.9 0a1.8 1.8 0 1 0 0-3.5 1.8 1.8 0 0 0 0 3.5m8.9 0a1.8 1.8 0 1 0 0-3.5 1.8 1.8 0 0 0 0 3.5m62.4 0a1.8 1.8 0 1 0 0-3.5 1.8 1.8 0 0 0 0 3.5m9 0a1.8 1.8 0 1 0 0-3.5 1.8 1.8 0 0 0 0 3.5m8.9 0a1.8 1.8 0 1 0 0-3.5 1.8 1.8 0 0 0 0 3.5m8.9 0a1.8 1.8 0 1 0 0-3.5 1.8 1.8 0 0 0 0 3.5m8.9 0a1.8 1.8 0 1 0 0-3.5 1.8 1.8 0 0 0 0 3.5m8.9 0a1.8 1.8 0 1 0 0-3.5 1.8 1.8 0 0 0 0 3.5m8.9 0a1.8 1.8 0 1 0 0-3.5 1.8 1.8 0 0 0 0 3.5m9 0a1.8 1.8 0 1 0 0-3.5 1.8 1.8 0 0 0 0 3.5m8.9 0a1.8 1.8 0 1 0 0-3.5 1.8 1.8 0 0 0 0 3.5m8.9 0a1.8 1.8 0 1 0 0-3.5 1.8 1.8 0 0 0 0 3.5m8.9 0a1.8 1.8 0 1 0 0-3.5 1.8 1.8 0 0 0 0 3.5m8.9 0a1.8 1.8 0 1 0 0-3.5 1.8 1.8 0 0 0 0 3.5m8.9 0a1.8 1.8 0 1 0 0-3.5 1.8 1.8 0 0 0 0 3.5m9 0a1.8 1.8 0 1 0 0-3.5 1.8 1.8 0 0 0 0 3.5M9.3 238.8a1.8 1.8 0 1 0 0-3.5 1.8 1.8 0 0 0 0 3.5m8.9 0a1.8 1.8 0 1 0 0-3.5 1.8 1.8 0 0 0 0 3.5m8.9 0a1.8 1.8 0 1 0 0-3.5 1.8 1.8 0 0 0 0 3.5m8.9 0a1.8 1.8 0 1 0 0-3.5 1.8 1.8 0 0 0 0 3.5m62.5 0a1.8 1.8 0 1 0 0-3.5 1.8 1.8 0 0 0 0 3.5m8.9 0a1.8 1.8 0 1 0 0-3.5 1.8 1.8 0 0 0 0 3.5m8.9 0a1.8 1.8 0 1 0 0-3.5 1.8 1.8 0 0 0 0 3.5m9 0a1.8 1.8 0 1 0 0-3.5 1.8 1.8 0 0 0 0 3.5m8.9 0a1.8 1.8 0 1 0 0-3.5 1.8 1.8 0 0 0 0 3.5m8.8 0a1.8 1.8 0 1 0 0-3.5 1.8 1.8 0 0 0 0 3.5m9 0a1.8 1.8 0 1 0 0-3.5 1.8 1.8 0 0 0 0 3.5m9 0a1.8 1.8 0 1 0 0-3.5 1.8 1.8 0 0 0 0 3.5m8.8 0a1.8 1.8 0 1 0 0-3.5 1.8 1.8 0 0 0 0 3.5m9 0a1.8 1.8 0 1 0 0-3.5 1.8 1.8 0 0 0 0 3.5m8.9 0a1.8 1.8 0 1 0 0-3.5 1.8 1.8 0 0 0 0 3.5m8.9 0a1.8 1.8 0 1 0 0-3.5 1.8 1.8 0 0 0 0 3.5m8.9 0a1.8 1.8 0 1 0 0-3.5 1.8 1.8 0 0 0 0 3.5m8.9 0a1.8 1.8 0 1 0 0-3.5 1.8 1.8 0 0 0 0 3.5M4.8 246.6a1.8 1.8 0 1 0 0-3.6 1.8 1.8 0 0 0 0 3.6m9 0a1.8 1.8 0 1 0 0-3.6 1.8 1.8 0 0 0 0 3.6m8.9 0a1.8 1.8 0 1 0 0-3.6 1.8 1.8 0 0 0 0 3.6m8.9 0a1.8 1.8 0 1 0 0-3.6 1.8 1.8 0 0 0 0 3.6m8.9 0a1.8 1.8 0 1 0 0-3.6 1.8 1.8 0 0 0 0 3.6m8.9 0a1.8 1.8 0 1 0 0-3.6 1.8 1.8 0 0 0 0 3.6m53.6 0a1.8 1.8 0 1 0 0-3.6 1.8 1.8 0 0 0 0 3.6m8.9 0a1.8 1.8 0 1 0 0-3.6 1.8 1.8 0 0 0 0 3.6m8.9 0a1.8 1.8 0 1 0 0-3.6 1.8 1.8 0 0 0 0 3.6m8.9 0a1.8 1.8 0 1 0 0-3.6 1.8 1.8 0 0 0 0 3.6m8.9 0a1.8 1.8 0 1 0 0-3.6 1.8 1.8 0 0 0 0 3.6m8.9 0a1.8 1.8 0 1 0 0-3.6 1.8 1.8 0 0 0 0 3.6m9 0a1.8 1.8 0 1 0 0-3.6 1.8 1.8 0 0 0 0 3.6m8.9 0a1.8 1.8 0 1 0 0-3.6 1.8 1.8 0 0 0 0 3.6m8.9 0a1.8 1.8 0 1 0 0-3.6 1.8 1.8 0 0 0 0 3.6m8.9 0a1.8 1.8 0 1 0 0-3.6 1.8 1.8 0 0 0 0 3.6m8.9 0a1.8 1.8 0 1 0 0-3.6 1.8 1.8 0 0 0 0 3.6m8.9 0a1.8 1.8 0 1 0 0-3.6 1.8 1.8 0 0 0 0 3.6m9 0a1.8 1.8 0 1 0 0-3.6 1.8 1.8 0 0 0 0 3.6m8.9 0a1.8 1.8 0 1 0 0-3.6 1.8 1.8 0 0 0 0 3.6M9.3 254.3a1.8 1.8 0 1 0 0-3.6 1.8 1.8 0 0 0 0 3.6m8.9 0a1.8 1.8 0 1 0 0-3.6 1.8 1.8 0 0 0 0 3.6m8.9 0a1.8 1.8 0 1 0 0-3.6 1.8 1.8 0 0 0 0 3.6m8.9 0a1.8 1.8 0 1 0 0-3.6 1.8 1.8 0 0 0 0 3.6m9 0a1.8 1.8 0 1 0 0-3.6 1.8 1.8 0 0 0 0 3.6m8.9 0a1.8 1.8 0 1 0 0-3.6 1.8 1.8 0 0 0 0 3.6m62.4 0a1.8 1.8 0 1 0 0-3.6 1.8 1.8 0 0 0 0 3.6m9 0a1.8 1.8 0 1 0 0-3.6 1.8 1.8 0 0 0 0 3.6m8.9 0a1.8 1.8 0 1 0 0-3.6 1.8 1.8 0 0 0 0 3.6m8.8 0a1.8 1.8 0 1 0 0-3.6 1.8 1.8 0 0 0 0 3.6m9 0a1.8 1.8 0 1 0 0-3.6 1.8 1.8 0 0 0 0 3.6m9 0a1.8 1.8 0 1 0 0-3.6 1.8 1.8 0 0 0 0 3.6m8.8 0a1.8 1.8 0 1 0 0-3.6 1.8 1.8 0 0 0 0 3.6m9 0a1.8 1.8 0 1 0 0-3.6 1.8 1.8 0 0 0 0 3.6m8.9 0a1.8 1.8 0 1 0 0-3.6 1.8 1.8 0 0 0 0 3.6m8.9 0a1.8 1.8 0 1 0 0-3.6 1.8 1.8 0 0 0 0 3.6m8.9 0a1.8 1.8 0 1 0 0-3.6 1.8 1.8 0 0 0 0 3.6m8.9 0a1.8 1.8 0 1 0 0-3.6 1.8 1.8 0 0 0 0 3.6m9 0a1.8 1.8 0 1 0 0-3.6 1.8 1.8 0 0 0 0 3.6M13.8 262a1.8 1.8 0 1 0 0-3.6 1.8 1.8 0 0 0 0 3.6m8.9 0a1.8 1.8 0 1 0 0-3.6 1.8 1.8 0 0 0 0 3.6m8.9 0a1.8 1.8 0 1 0 0-3.6 1.8 1.8 0 0 0 0 3.6m8.9 0a1.8 1.8 0 1 0 0-3.6 1.8 1.8 0 0 0 0 3.6m8.9 0a1.8 1.8 0 1 0 0-3.6 1.8 1.8 0 0 0 0 3.6m9 0a1.8 1.8 0 1 0 0-3.6 1.8 1.8 0 0 0 0 3.6m89.1 0a1.8 1.8 0 1 0 0-3.6 1.8 1.8 0 0 0 0 3.6m9 0a1.8 1.8 0 1 0 0-3.6 1.8 1.8 0 0 0 0 3.6m8.9 0a1.8 1.8 0 1 0 0-3.6 1.8 1.8 0 0 0 0 3.6m8.9 0a1.8 1.8 0 1 0 0-3.6 1.8 1.8 0 0 0 0 3.6m8.9 0a1.8 1.8 0 1 0 0-3.6 1.8 1.8 0 0 0 0 3.6m8.9 0a1.8 1.8 0 1 0 0-3.6 1.8 1.8 0 0 0 0 3.6m8.9 0a1.8 1.8 0 1 0 0-3.6 1.8 1.8 0 0 0 0 3.6m9 0a1.8 1.8 0 1 0 0-3.6 1.8 1.8 0 0 0 0 3.6m8.9 0a1.8 1.8 0 1 0 0-3.6 1.8 1.8 0 0 0 0 3.6m8.9 0a1.8 1.8 0 1 0 0-3.6 1.8 1.8 0 0 0 0 3.6M9.3 269.7a1.8 1.8 0 1 0 0-3.6 1.8 1.8 0 0 0 0 3.6m8.9 0a1.8 1.8 0 1 0 0-3.6 1.8 1.8 0 0 0 0 3.6m8.9 0a1.8 1.8 0 1 0 0-3.6 1.8 1.8 0 0 0 0 3.6m8.9 0a1.8 1.8 0 1 0 0-3.6 1.8 1.8 0 0 0 0 3.6m9 0a1.8 1.8 0 1 0 0-3.6 1.8 1.8 0 0 0 0 3.6m8.9 0a1.8 1.8 0 1 0 0-3.6 1.8 1.8 0 0 0 0 3.6m8.9 0a1.8 1.8 0 1 0 0-3.6 1.8 1.8 0 0 0 0 3.6m89.2 0a1.8 1.8 0 1 0 0-3.6 1.8 1.8 0 0 0 0 3.6m9 0a1.8 1.8 0 1 0 0-3.6 1.8 1.8 0 0 0 0 3.6m8.8 0a1.8 1.8 0 1 0 0-3.6 1.8 1.8 0 0 0 0 3.6m9 0a1.8 1.8 0 1 0 0-3.6 1.8 1.8 0 0 0 0 3.6m8.9 0a1.8 1.8 0 1 0 0-3.6 1.8 1.8 0 0 0 0 3.6m8.9 0a1.8 1.8 0 1 0 0-3.6 1.8 1.8 0 0 0 0 3.6m8.9 0a1.8 1.8 0 1 0 0-3.6 1.8 1.8 0 0 0 0 3.6m8.9 0a1.8 1.8 0 1 0 0-3.6 1.8 1.8 0 0 0 0 3.6m9 0a1.8 1.8 0 1 0 0-3.6 1.8 1.8 0 0 0 0 3.6m8.9 0a1.8 1.8 0 1 0 0-3.6 1.8 1.8 0 0 0 0 3.6m8.9 0a1.8 1.8 0 1 0 0-3.6 1.8 1.8 0 0 0 0 3.6m8.9 0a1.8 1.8 0 1 0 0-3.6 1.8 1.8 0 0 0 0 3.6M4.8 277.4a1.8 1.8 0 1 0 0-3.5 1.8 1.8 0 0 0 0 3.5m9 0a1.8 1.8 0 1 0 0-3.5 1.8 1.8 0 0 0 0 3.5m8.9 0a1.8 1.8 0 1 0 0-3.5 1.8 1.8 0 0 0 0 3.5m8.9 0a1.8 1.8 0 1 0 0-3.5 1.8 1.8 0 0 0 0 3.5m8.9 0a1.8 1.8 0 1 0 0-3.5 1.8 1.8 0 0 0 0 3.5m8.9 0a1.8 1.8 0 1 0 0-3.5 1.8 1.8 0 0 0 0 3.5m9 0a1.8 1.8 0 1 0 0-3.5 1.8 1.8 0 0 0 0 3.5m98.1 0a1.8 1.8 0 1 0 0-3.5 1.8 1.8 0 0 0 0 3.5m8.9 0a1.8 1.8 0 1 0 0-3.5 1.8 1.8 0 0 0 0 3.5m8.9 0a1.8 1.8 0 1 0 0-3.5 1.8 1.8 0 0 0 0 3.5m8.9 0a1.8 1.8 0 1 0 0-3.5 1.8 1.8 0 0 0 0 3.5m8.9 0a1.8 1.8 0 1 0 0-3.5 1.8 1.8 0 0 0 0 3.5m8.9 0a1.8 1.8 0 1 0 0-3.5 1.8 1.8 0 0 0 0 3.5m9 0a1.8 1.8 0 1 0 0-3.5 1.8 1.8 0 0 0 0 3.5m8.9 0a1.8 1.8 0 1 0 0-3.5 1.8 1.8 0 0 0 0 3.5m8.9 0a1.8 1.8 0 1 0 0-3.5 1.8 1.8 0 0 0 0 3.5m8.9 0a1.8 1.8 0 1 0 0-3.5 1.8 1.8 0 0 0 0 3.5m9 0a1.8 1.8 0 1 0 0-3.5 1.8 1.8 0 0 0 0 3.5m8.9 0a1.8 1.8 0 1 0 0-3.5 1.8 1.8 0 0 0 0 3.5M9.3 285.1a1.8 1.8 0 1 0 0-3.5 1.8 1.8 0 0 0 0 3.5m8.9 0a1.8 1.8 0 1 0 0-3.5 1.8 1.8 0 0 0 0 3.5m8.9 0a1.8 1.8 0 1 0 0-3.5 1.8 1.8 0 0 0 0 3.5m8.9 0a1.8 1.8 0 1 0 0-3.5 1.8 1.8 0 0 0 0 3.5m9 0a1.8 1.8 0 1 0 0-3.5 1.8 1.8 0 0 0 0 3.5m8.9 0a1.8 1.8 0 1 0 0-3.5 1.8 1.8 0 0 0 0 3.5m107.1 0a1.8 1.8 0 1 0 0-3.5 1.8 1.8 0 0 0 0 3.5m8.8 0a1.8 1.8 0 1 0 0-3.5 1.8 1.8 0 0 0 0 3.5m9 0a1.8 1.8 0 1 0 0-3.5 1.8 1.8 0 0 0 0 3.5m8.9 0a1.8 1.8 0 1 0 0-3.5 1.8 1.8 0 0 0 0 3.5m8.9 0a1.8 1.8 0 1 0 0-3.5 1.8 1.8 0 0 0 0 3.5m8.9 0a1.8 1.8 0 1 0 0-3.5 1.8 1.8 0 0 0 0 3.5m8.9 0a1.8 1.8 0 1 0 0-3.5 1.8 1.8 0 0 0 0 3.5m9 0a1.8 1.8 0 1 0 0-3.5 1.8 1.8 0 0 0 0 3.5m8.9 0a1.8 1.8 0 1 0 0-3.5 1.8 1.8 0 0 0 0 3.5m8.9 0a1.8 1.8 0 1 0 0-3.5 1.8 1.8 0 0 0 0 3.5m8.9 0a1.8 1.8 0 1 0 0-3.5 1.8 1.8 0 0 0 0 3.5m8.9 0a1.8 1.8 0 1 0 0-3.5 1.8 1.8 0 0 0 0 3.5M4.8 292.9a1.8 1.8 0 1 0 0-3.6 1.8 1.8 0 0 0 0 3.6m9 0a1.8 1.8 0 1 0 0-3.6 1.8 1.8 0 0 0 0 3.6m8.9 0a1.8 1.8 0 1 0 0-3.6 1.8 1.8 0 0 0 0 3.6m8.9 0a1.8 1.8 0 1 0 0-3.6 1.8 1.8 0 0 0 0 3.6m8.9 0a1.8 1.8 0 1 0 0-3.6 1.8 1.8 0 0 0 0 3.6m8.9 0a1.8 1.8 0 1 0 0-3.6 1.8 1.8 0 0 0 0 3.6m116 0a1.8 1.8 0 1 0 0-3.6 1.8 1.8 0 0 0 0 3.6m8.9 0a1.8 1.8 0 1 0 0-3.6 1.8 1.8 0 0 0 0 3.6m8.9 0a1.8 1.8 0 1 0 0-3.6 1.8 1.8 0 0 0 0 3.6m8.9 0a1.8 1.8 0 1 0 0-3.6 1.8 1.8 0 0 0 0 3.6m8.9 0a1.8 1.8 0 1 0 0-3.6 1.8 1.8 0 0 0 0 3.6m9 0a1.8 1.8 0 1 0 0-3.6 1.8 1.8 0 0 0 0 3.6m8.9 0a1.8 1.8 0 1 0 0-3.6 1.8 1.8 0 0 0 0 3.6m8.9 0a1.8 1.8 0 1 0 0-3.6 1.8 1.8 0 0 0 0 3.6m8.9 0a1.8 1.8 0 1 0 0-3.6 1.8 1.8 0 0 0 0 3.6m9 0a1.8 1.8 0 1 0 0-3.6 1.8 1.8 0 0 0 0 3.6m8.9 0a1.8 1.8 0 1 0 0-3.6 1.8 1.8 0 0 0 0 3.6M36 300.6a1.8 1.8 0 1 0 0-3.6 1.8 1.8 0 0 0 0 3.6m9 0a1.8 1.8 0 1 0 0-3.6 1.8 1.8 0 0 0 0 3.6m124.8 0a1.8 1.8 0 1 0 0-3.6 1.8 1.8 0 0 0 0 3.6m9 0a1.8 1.8 0 1 0 0-3.6 1.8 1.8 0 0 0 0 3.6m8.9 0a1.8 1.8 0 1 0 0-3.6 1.8 1.8 0 0 0 0 3.6m8.9 0a1.8 1.8 0 1 0 0-3.6 1.8 1.8 0 0 0 0 3.6m8.9 0a1.8 1.8 0 1 0 0-3.6 1.8 1.8 0 0 0 0 3.6m8.9 0a1.8 1.8 0 1 0 0-3.6 1.8 1.8 0 0 0 0 3.6m9 0a1.8 1.8 0 1 0 0-3.6 1.8 1.8 0 0 0 0 3.6m8.9 0a1.8 1.8 0 1 0 0-3.6 1.8 1.8 0 0 0 0 3.6m8.9 0a1.8 1.8 0 1 0 0-3.6 1.8 1.8 0 0 0 0 3.6m8.9 0a1.8 1.8 0 1 0 0-3.6 1.8 1.8 0 0 0 0 3.6m8.9 0a1.8 1.8 0 1 0 0-3.6 1.8 1.8 0 0 0 0 3.6m-93.6 7.7a1.8 1.8 0 1 0 0-3.6 1.8 1.8 0 0 0 0 3.6m8.9 0a1.8 1.8 0 1 0 0-3.6 1.8 1.8 0 0 0 0 3.6m8.9 0a1.8 1.8 0 1 0 0-3.6 1.8 1.8 0 0 0 0 3.6m8.9 0a1.8 1.8 0 1 0 0-3.6 1.8 1.8 0 0 0 0 3.6m8.9 0a1.8 1.8 0 1 0 0-3.6 1.8 1.8 0 0 0 0 3.6m9 0a1.8 1.8 0 1 0 0-3.6 1.8 1.8 0 0 0 0 3.6m8.9 0a1.8 1.8 0 1 0 0-3.6 1.8 1.8 0 0 0 0 3.6m8.9 0a1.8 1.8 0 1 0 0-3.6 1.8 1.8 0 0 0 0 3.6m8.9 0a1.8 1.8 0 1 0 0-3.6 1.8 1.8 0 0 0 0 3.6m9 0a1.8 1.8 0 1 0 0-3.6 1.8 1.8 0 0 0 0 3.6m8.9 0a1.8 1.8 0 1 0 0-3.6 1.8 1.8 0 0 0 0 3.6m8.9 0a1.8 1.8 0 1 0 0-3.6 1.8 1.8 0 0 0 0 3.6m-93.7 7.7a1.8 1.8 0 1 0 0-3.6 1.8 1.8 0 0 0 0 3.6m9 0a1.8 1.8 0 1 0 0-3.6 1.8 1.8 0 0 0 0 3.6m8.9 0a1.8 1.8 0 1 0 0-3.6 1.8 1.8 0 0 0 0 3.6m8.9 0a1.8 1.8 0 1 0 0-3.6 1.8 1.8 0 0 0 0 3.6m8.9 0a1.8 1.8 0 1 0 0-3.6 1.8 1.8 0 0 0 0 3.6m8.9 0a1.8 1.8 0 1 0 0-3.6 1.8 1.8 0 0 0 0 3.6m9 0a1.8 1.8 0 1 0 0-3.6 1.8 1.8 0 0 0 0 3.6m8.9 0a1.8 1.8 0 1 0 0-3.6 1.8 1.8 0 0 0 0 3.6m8.9 0a1.8 1.8 0 1 0 0-3.6 1.8 1.8 0 0 0 0 3.6m8.9 0a1.8 1.8 0 1 0 0-3.6 1.8 1.8 0 0 0 0 3.6m8.9 0a1.8 1.8 0 1 0 0-3.6 1.8 1.8 0 0 0 0 3.6m9 0a1.8 1.8 0 1 0 0-3.6 1.8 1.8 0 0 0 0 3.6m-102.6 7.7a1.8 1.8 0 1 0 0-3.5 1.8 1.8 0 0 0 0 3.5m8.9 0a1.8 1.8 0 1 0 0-3.5 1.8 1.8 0 0 0 0 3.5m8.9 0a1.8 1.8 0 1 0 0-3.5 1.8 1.8 0 0 0 0 3.5m8.9 0a1.8 1.8 0 1 0 0-3.5 1.8 1.8 0 0 0 0 3.5m8.9 0a1.8 1.8 0 1 0 0-3.5 1.8 1.8 0 0 0 0 3.5m9 0a1.8 1.8 0 1 0 0-3.5 1.8 1.8 0 0 0 0 3.5m8.9 0a1.8 1.8 0 1 0 0-3.5 1.8 1.8 0 0 0 0 3.5m8.9 0a1.8 1.8 0 1 0 0-3.5 1.8 1.8 0 0 0 0 3.5m8.9 0a1.8 1.8 0 1 0 0-3.5 1.8 1.8 0 0 0 0 3.5m9 0a1.8 1.8 0 1 0 0-3.5 1.8 1.8 0 0 0 0 3.5m8.9 0a1.8 1.8 0 1 0 0-3.5 1.8 1.8 0 0 0 0 3.5m8.9 0a1.8 1.8 0 1 0 0-3.5 1.8 1.8 0 0 0 0 3.5m-156.1 7.8a1.8 1.8 0 1 0 0-3.6 1.8 1.8 0 0 0 0 3.6m8.9 0a1.8 1.8 0 1 0 0-3.6 1.8 1.8 0 0 0 0 3.6m44.7 0a1.8 1.8 0 1 0 0-3.6 1.8 1.8 0 0 0 0 3.6m8.8 0a1.8 1.8 0 1 0 0-3.6 1.8 1.8 0 0 0 0 3.6m9 0a1.8 1.8 0 1 0 0-3.6 1.8 1.8 0 0 0 0 3.6m8.9 0a1.8 1.8 0 1 0 0-3.6 1.8 1.8 0 0 0 0 3.6m8.9 0a1.8 1.8 0 1 0 0-3.6 1.8 1.8 0 0 0 0 3.6m8.9 0a1.8 1.8 0 1 0 0-3.6 1.8 1.8 0 0 0 0 3.6m8.9 0a1.8 1.8 0 1 0 0-3.6 1.8 1.8 0 0 0 0 3.6m9 0a1.8 1.8 0 1 0 0-3.6 1.8 1.8 0 0 0 0 3.6m8.9 0a1.8 1.8 0 1 0 0-3.6 1.8 1.8 0 0 0 0 3.6m8.9 0a1.8 1.8 0 1 0 0-3.6 1.8 1.8 0 0 0 0 3.6m8.9 0a1.8 1.8 0 1 0 0-3.6 1.8 1.8 0 0 0 0 3.6m8.9 0a1.8 1.8 0 1 0 0-3.6 1.8 1.8 0 0 0 0 3.6m9 0a1.8 1.8 0 1 0 0-3.6 1.8 1.8 0 0 0 0 3.6m-156.1 7.7a1.8 1.8 0 1 0 0-3.6 1.8 1.8 0 0 0 0 3.6m8.9 0a1.8 1.8 0 1 0 0-3.6 1.8 1.8 0 0 0 0 3.6m8.9 0a1.8 1.8 0 1 0 0-3.6 1.8 1.8 0 0 0 0 3.6m8.9 0a1.8 1.8 0 1 0 0-3.6 1.8 1.8 0 0 0 0 3.6m8.9 0a1.8 1.8 0 1 0 0-3.6 1.8 1.8 0 0 0 0 3.6m9 0a1.8 1.8 0 1 0 0-3.6 1.8 1.8 0 0 0 0 3.6m8.9 0a1.8 1.8 0 1 0 0-3.6 1.8 1.8 0 0 0 0 3.6m8.9 0a1.8 1.8 0 1 0 0-3.6 1.8 1.8 0 0 0 0 3.6m8.9 0a1.8 1.8 0 1 0 0-3.6 1.8 1.8 0 0 0 0 3.6m8.9 0a1.8 1.8 0 1 0 0-3.6 1.8 1.8 0 0 0 0 3.6m8.9 0a1.8 1.8 0 1 0 0-3.6 1.8 1.8 0 0 0 0 3.6m9 0a1.8 1.8 0 1 0 0-3.6 1.8 1.8 0 0 0 0 3.6m8.9 0a1.8 1.8 0 1 0 0-3.6 1.8 1.8 0 0 0 0 3.6m8.9 0a1.8 1.8 0 1 0 0-3.6 1.8 1.8 0 0 0 0 3.6m8.9 0a1.8 1.8 0 1 0 0-3.6 1.8 1.8 0 0 0 0 3.6m9 0a1.8 1.8 0 1 0 0-3.6 1.8 1.8 0 0 0 0 3.6m8.9 0a1.8 1.8 0 1 0 0-3.6 1.8 1.8 0 0 0 0 3.6m8.9 0a1.8 1.8 0 1 0 0-3.6 1.8 1.8 0 0 0 0 3.6m8.9 0a1.8 1.8 0 1 0 0-3.6 1.8 1.8 0 0 0 0 3.6m-165 7.7a1.8 1.8 0 1 0 0-3.6 1.8 1.8 0 0 0 0 3.6m8.9 0a1.8 1.8 0 1 0 0-3.6 1.8 1.8 0 0 0 0 3.6m9 0a1.8 1.8 0 1 0 0-3.6 1.8 1.8 0 0 0 0 3.6m8.9 0a1.8 1.8 0 1 0 0-3.6 1.8 1.8 0 0 0 0 3.6m8.8 0a1.8 1.8 0 1 0 0-3.6 1.8 1.8 0 0 0 0 3.6m9 0a1.8 1.8 0 1 0 0-3.6 1.8 1.8 0 0 0 0 3.6m9 0a1.8 1.8 0 1 0 0-3.6 1.8 1.8 0 0 0 0 3.6m8.8 0a1.8 1.8 0 1 0 0-3.6 1.8 1.8 0 0 0 0 3.6m9 0a1.8 1.8 0 1 0 0-3.6 1.8 1.8 0 0 0 0 3.6m8.9 0a1.8 1.8 0 1 0 0-3.6 1.8 1.8 0 0 0 0 3.6m8.9 0a1.8 1.8 0 1 0 0-3.6 1.8 1.8 0 0 0 0 3.6m8.9 0a1.8 1.8 0 1 0 0-3.6 1.8 1.8 0 0 0 0 3.6m8.9 0a1.8 1.8 0 1 0 0-3.6 1.8 1.8 0 0 0 0 3.6m9 0a1.8 1.8 0 1 0 0-3.6 1.8 1.8 0 0 0 0 3.6m8.9 0a1.8 1.8 0 1 0 0-3.6 1.8 1.8 0 0 0 0 3.6m8.9 0a1.8 1.8 0 1 0 0-3.6 1.8 1.8 0 0 0 0 3.6m8.9 0a1.8 1.8 0 1 0 0-3.6 1.8 1.8 0 0 0 0 3.6m8.9 0a1.8 1.8 0 1 0 0-3.6 1.8 1.8 0 0 0 0 3.6m9 0a1.8 1.8 0 1 0 0-3.6 1.8 1.8 0 0 0 0 3.6m8.9 0a1.8 1.8 0 1 0 0-3.6 1.8 1.8 0 0 0 0 3.6M103 354.6a1.8 1.8 0 1 0 0-3.6 1.8 1.8 0 0 0 0 3.6m8.9 0a1.8 1.8 0 1 0 0-3.6 1.8 1.8 0 0 0 0 3.6m8.9 0a1.8 1.8 0 1 0 0-3.6 1.8 1.8 0 0 0 0 3.6m8.9 0a1.8 1.8 0 1 0 0-3.6 1.8 1.8 0 0 0 0 3.6m8.9 0a1.8 1.8 0 1 0 0-3.6 1.8 1.8 0 0 0 0 3.6m8.9 0a1.8 1.8 0 1 0 0-3.6 1.8 1.8 0 0 0 0 3.6m9 0a1.8 1.8 0 1 0 0-3.6 1.8 1.8 0 0 0 0 3.6m8.9 0a1.8 1.8 0 1 0 0-3.6 1.8 1.8 0 0 0 0 3.6m8.9 0a1.8 1.8 0 1 0 0-3.6 1.8 1.8 0 0 0 0 3.6m8.9 0a1.8 1.8 0 1 0 0-3.6 1.8 1.8 0 0 0 0 3.6m8.9 0a1.8 1.8 0 1 0 0-3.6 1.8 1.8 0 0 0 0 3.6m8.9 0a1.8 1.8 0 1 0 0-3.6 1.8 1.8 0 0 0 0 3.6m9 0a1.8 1.8 0 1 0 0-3.6 1.8 1.8 0 0 0 0 3.6m8.9 0a1.8 1.8 0 1 0 0-3.6 1.8 1.8 0 0 0 0 3.6m8.9 0a1.8 1.8 0 1 0 0-3.6 1.8 1.8 0 0 0 0 3.6m8.9 0a1.8 1.8 0 1 0 0-3.6 1.8 1.8 0 0 0 0 3.6m9 0a1.8 1.8 0 1 0 0-3.6 1.8 1.8 0 0 0 0 3.6m8.9 0a1.8 1.8 0 1 0 0-3.6 1.8 1.8 0 0 0 0 3.6m8.9 0a1.8 1.8 0 1 0 0-3.6 1.8 1.8 0 0 0 0 3.6m8.9 0a1.8 1.8 0 1 0 0-3.6 1.8 1.8 0 0 0 0 3.6m8.9 0a1.8 1.8 0 1 0 0-3.6 1.8 1.8 0 0 0 0 3.6m-173.9 7.7a1.8 1.8 0 1 0 0-3.5 1.8 1.8 0 0 0 0 3.5m8.9 0a1.8 1.8 0 1 0 0-3.5 1.8 1.8 0 0 0 0 3.5m9 0a1.8 1.8 0 1 0 0-3.5 1.8 1.8 0 0 0 0 3.5m8.9 0a1.8 1.8 0 1 0 0-3.5 1.8 1.8 0 0 0 0 3.5m8.8 0a1.8 1.8 0 1 0 0-3.5 1.8 1.8 0 0 0 0 3.5m9 0a1.8 1.8 0 1 0 0-3.5 1.8 1.8 0 0 0 0 3.5m9 0a1.8 1.8 0 1 0 0-3.5 1.8 1.8 0 0 0 0 3.5m8.8 0a1.8 1.8 0 1 0 0-3.5 1.8 1.8 0 0 0 0 3.5m9 0a1.8 1.8 0 1 0 0-3.5 1.8 1.8 0 0 0 0 3.5m8.9 0a1.8 1.8 0 1 0 0-3.5 1.8 1.8 0 0 0 0 3.5m8.9 0a1.8 1.8 0 1 0 0-3.5 1.8 1.8 0 0 0 0 3.5m8.9 0a1.8 1.8 0 1 0 0-3.5 1.8 1.8 0 0 0 0 3.5m8.9 0a1.8 1.8 0 1 0 0-3.5 1.8 1.8 0 0 0 0 3.5m9 0a1.8 1.8 0 1 0 0-3.5 1.8 1.8 0 0 0 0 3.5m8.9 0a1.8 1.8 0 1 0 0-3.5 1.8 1.8 0 0 0 0 3.5m8.9 0a1.8 1.8 0 1 0 0-3.5 1.8 1.8 0 0 0 0 3.5m8.9 0a1.8 1.8 0 1 0 0-3.5 1.8 1.8 0 0 0 0 3.5m8.9 0a1.8 1.8 0 1 0 0-3.5 1.8 1.8 0 0 0 0 3.5m9 0a1.8 1.8 0 1 0 0-3.5 1.8 1.8 0 0 0 0 3.5m8.9 0a1.8 1.8 0 1 0 0-3.5 1.8 1.8 0 0 0 0 3.5m8.9 0a1.8 1.8 0 1 0 0-3.5 1.8 1.8 0 0 0 0 3.5M103 370a1.8 1.8 0 1 0 0-3.5 1.8 1.8 0 0 0 0 3.5m8.9 0a1.8 1.8 0 1 0 0-3.5 1.8 1.8 0 0 0 0 3.5m8.9 0a1.8 1.8 0 1 0 0-3.5 1.8 1.8 0 0 0 0 3.5m8.9 0a1.8 1.8 0 1 0 0-3.5 1.8 1.8 0 0 0 0 3.5m8.9 0a1.8 1.8 0 1 0 0-3.5 1.8 1.8 0 0 0 0 3.5m8.9 0a1.8 1.8 0 1 0 0-3.5 1.8 1.8 0 0 0 0 3.5m9 0a1.8 1.8 0 1 0 0-3.5 1.8 1.8 0 0 0 0 3.5m8.9 0a1.8 1.8 0 1 0 0-3.5 1.8 1.8 0 0 0 0 3.5m8.9 0a1.8 1.8 0 1 0 0-3.5 1.8 1.8 0 0 0 0 3.5m8.9 0a1.8 1.8 0 1 0 0-3.5 1.8 1.8 0 0 0 0 3.5m8.9 0a1.8 1.8 0 1 0 0-3.5 1.8 1.8 0 0 0 0 3.5m8.9 0a1.8 1.8 0 1 0 0-3.5 1.8 1.8 0 0 0 0 3.5m9 0a1.8 1.8 0 1 0 0-3.5 1.8 1.8 0 0 0 0 3.5m8.9 0a1.8 1.8 0 1 0 0-3.5 1.8 1.8 0 0 0 0 3.5m8.9 0a1.8 1.8 0 1 0 0-3.5 1.8 1.8 0 0 0 0 3.5m8.9 0a1.8 1.8 0 1 0 0-3.5 1.8 1.8 0 0 0 0 3.5m9 0a1.8 1.8 0 1 0 0-3.5 1.8 1.8 0 0 0 0 3.5m8.9 0a1.8 1.8 0 1 0 0-3.5 1.8 1.8 0 0 0 0 3.5m8.9 0a1.8 1.8 0 1 0 0-3.5 1.8 1.8 0 0 0 0 3.5m8.9 0a1.8 1.8 0 1 0 0-3.5 1.8 1.8 0 0 0 0 3.5m8.9 0a1.8 1.8 0 1 0 0-3.5 1.8 1.8 0 0 0 0 3.5m9 0a1.8 1.8 0 1 0 0-3.5 1.8 1.8 0 0 0 0 3.5m8.9 0a1.8 1.8 0 1 0 0-3.5 1.8 1.8 0 0 0 0 3.5m8.8 0a1.8 1.8 0 1 0 0-3.5 1.8 1.8 0 0 0 0 3.5m-200.6 7.8a1.8 1.8 0 1 0 0-3.6 1.8 1.8 0 0 0 0 3.6m8.9 0a1.8 1.8 0 1 0 0-3.6 1.8 1.8 0 0 0 0 3.6m9 0a1.8 1.8 0 1 0 0-3.6 1.8 1.8 0 0 0 0 3.6m8.9 0a1.8 1.8 0 1 0 0-3.6 1.8 1.8 0 0 0 0 3.6m8.8 0a1.8 1.8 0 1 0 0-3.6 1.8 1.8 0 0 0 0 3.6m9 0a1.8 1.8 0 1 0 0-3.6 1.8 1.8 0 0 0 0 3.6m9 0a1.8 1.8 0 1 0 0-3.6 1.8 1.8 0 0 0 0 3.6m8.8 0a1.8 1.8 0 1 0 0-3.6 1.8 1.8 0 0 0 0 3.6m9 0a1.8 1.8 0 1 0 0-3.6 1.8 1.8 0 0 0 0 3.6m8.9 0a1.8 1.8 0 1 0 0-3.6 1.8 1.8 0 0 0 0 3.6m8.9 0a1.8 1.8 0 1 0 0-3.6 1.8 1.8 0 0 0 0 3.6m8.9 0a1.8 1.8 0 1 0 0-3.6 1.8 1.8 0 0 0 0 3.6m8.9 0a1.8 1.8 0 1 0 0-3.6 1.8 1.8 0 0 0 0 3.6m9 0a1.8 1.8 0 1 0 0-3.6 1.8 1.8 0 0 0 0 3.6m8.9 0a1.8 1.8 0 1 0 0-3.6 1.8 1.8 0 0 0 0 3.6m8.9 0a1.8 1.8 0 1 0 0-3.6 1.8 1.8 0 0 0 0 3.6m8.9 0a1.8 1.8 0 1 0 0-3.6 1.8 1.8 0 0 0 0 3.6m8.9 0a1.8 1.8 0 1 0 0-3.6 1.8 1.8 0 0 0 0 3.6m9 0a1.8 1.8 0 1 0 0-3.6 1.8 1.8 0 0 0 0 3.6m8.9 0a1.8 1.8 0 1 0 0-3.6 1.8 1.8 0 0 0 0 3.6m8.9 0a1.8 1.8 0 1 0 0-3.6 1.8 1.8 0 0 0 0 3.6m8.9 0a1.8 1.8 0 1 0 0-3.6 1.8 1.8 0 0 0 0 3.6m8.9 0a1.8 1.8 0 1 0 0-3.6 1.8 1.8 0 0 0 0 3.6m8.9 0a1.8 1.8 0 1 0 0-3.6 1.8 1.8 0 0 0 0 3.6m9 0a1.8 1.8 0 1 0 0-3.6 1.8 1.8 0 0 0 0 3.6m-209.6 7.7a1.8 1.8 0 1 0 0-3.6 1.8 1.8 0 0 0 0 3.6m8.9 0a1.8 1.8 0 1 0 0-3.6 1.8 1.8 0 0 0 0 3.6m8.9 0a1.8 1.8 0 1 0 0-3.6 1.8 1.8 0 0 0 0 3.6m8.9 0a1.8 1.8 0 1 0 0-3.6 1.8 1.8 0 0 0 0 3.6m8.9 0a1.8 1.8 0 1 0 0-3.6 1.8 1.8 0 0 0 0 3.6m9 0a1.8 1.8 0 1 0 0-3.6 1.8 1.8 0 0 0 0 3.6m8.9 0a1.8 1.8 0 1 0 0-3.6 1.8 1.8 0 0 0 0 3.6m8.9 0a1.8 1.8 0 1 0 0-3.6 1.8 1.8 0 0 0 0 3.6m8.9 0a1.8 1.8 0 1 0 0-3.6 1.8 1.8 0 0 0 0 3.6m8.9 0a1.8 1.8 0 1 0 0-3.6 1.8 1.8 0 0 0 0 3.6m8.9 0a1.8 1.8 0 1 0 0-3.6 1.8 1.8 0 0 0 0 3.6m9 0a1.8 1.8 0 1 0 0-3.6 1.8 1.8 0 0 0 0 3.6m8.9 0a1.8 1.8 0 1 0 0-3.6 1.8 1.8 0 0 0 0 3.6m8.9 0a1.8 1.8 0 1 0 0-3.6 1.8 1.8 0 0 0 0 3.6m8.9 0a1.8 1.8 0 1 0 0-3.6 1.8 1.8 0 0 0 0 3.6m9 0a1.8 1.8 0 1 0 0-3.6 1.8 1.8 0 0 0 0 3.6m8.9 0a1.8 1.8 0 1 0 0-3.6 1.8 1.8 0 0 0 0 3.6m8.9 0a1.8 1.8 0 1 0 0-3.6 1.8 1.8 0 0 0 0 3.6m8.9 0a1.8 1.8 0 1 0 0-3.6 1.8 1.8 0 0 0 0 3.6m8.9 0a1.8 1.8 0 1 0 0-3.6 1.8 1.8 0 0 0 0 3.6m9 0a1.8 1.8 0 1 0 0-3.6 1.8 1.8 0 0 0 0 3.6m8.9 0a1.8 1.8 0 1 0 0-3.6 1.8 1.8 0 0 0 0 3.6m8.8 0a1.8 1.8 0 1 0 0-3.6 1.8 1.8 0 0 0 0 3.6m9 0a1.8 1.8 0 1 0 0-3.6 1.8 1.8 0 0 0 0 3.6m9 0a1.8 1.8 0 1 0 0-3.6 1.8 1.8 0 0 0 0 3.6m-209.7 7.7a1.8 1.8 0 1 0 0-3.6 1.8 1.8 0 0 0 0 3.6m9 0a1.8 1.8 0 1 0 0-3.6 1.8 1.8 0 0 0 0 3.6m8.9 0a1.8 1.8 0 1 0 0-3.6 1.8 1.8 0 0 0 0 3.6m8.8 0a1.8 1.8 0 1 0 0-3.6 1.8 1.8 0 0 0 0 3.6m9 0a1.8 1.8 0 1 0 0-3.6 1.8 1.8 0 0 0 0 3.6m9 0a1.8 1.8 0 1 0 0-3.6 1.8 1.8 0 0 0 0 3.6m8.8 0a1.8 1.8 0 1 0 0-3.6 1.8 1.8 0 0 0 0 3.6m9 0a1.8 1.8 0 1 0 0-3.6 1.8 1.8 0 0 0 0 3.6m8.9 0a1.8 1.8 0 1 0 0-3.6 1.8 1.8 0 0 0 0 3.6m8.9 0a1.8 1.8 0 1 0 0-3.6 1.8 1.8 0 0 0 0 3.6m8.9 0a1.8 1.8 0 1 0 0-3.6 1.8 1.8 0 0 0 0 3.6m8.9 0a1.8 1.8 0 1 0 0-3.6 1.8 1.8 0 0 0 0 3.6m9 0a1.8 1.8 0 1 0 0-3.6 1.8 1.8 0 0 0 0 3.6m8.9 0a1.8 1.8 0 1 0 0-3.6 1.8 1.8 0 0 0 0 3.6m8.9 0a1.8 1.8 0 1 0 0-3.6 1.8 1.8 0 0 0 0 3.6m8.9 0a1.8 1.8 0 1 0 0-3.6 1.8 1.8 0 0 0 0 3.6m8.9 0a1.8 1.8 0 1 0 0-3.6 1.8 1.8 0 0 0 0 3.6m9 0a1.8 1.8 0 1 0 0-3.6 1.8 1.8 0 0 0 0 3.6m8.9 0a1.8 1.8 0 1 0 0-3.6 1.8 1.8 0 0 0 0 3.6m8.9 0a1.8 1.8 0 1 0 0-3.6 1.8 1.8 0 0 0 0 3.6m8.9 0a1.8 1.8 0 1 0 0-3.6 1.8 1.8 0 0 0 0 3.6m8.9 0a1.8 1.8 0 1 0 0-3.6 1.8 1.8 0 0 0 0 3.6m8.9 0a1.8 1.8 0 1 0 0-3.6 1.8 1.8 0 0 0 0 3.6m9 0a1.8 1.8 0 1 0 0-3.6 1.8 1.8 0 0 0 0 3.6m-200.7 7.7a1.8 1.8 0 1 0 0-3.6 1.8 1.8 0 0 0 0 3.6m8.9 0a1.8 1.8 0 1 0 0-3.6 1.8 1.8 0 0 0 0 3.6m8.9 0a1.8 1.8 0 1 0 0-3.6 1.8 1.8 0 0 0 0 3.6m8.9 0a1.8 1.8 0 1 0 0-3.6 1.8 1.8 0 0 0 0 3.6m9 0a1.8 1.8 0 1 0 0-3.6 1.8 1.8 0 0 0 0 3.6m8.9 0a1.8 1.8 0 1 0 0-3.6 1.8 1.8 0 0 0 0 3.6m8.9 0a1.8 1.8 0 1 0 0-3.6 1.8 1.8 0 0 0 0 3.6m8.9 0a1.8 1.8 0 1 0 0-3.6 1.8 1.8 0 0 0 0 3.6m8.9 0a1.8 1.8 0 1 0 0-3.6 1.8 1.8 0 0 0 0 3.6m8.9 0a1.8 1.8 0 1 0 0-3.6 1.8 1.8 0 0 0 0 3.6m9 0a1.8 1.8 0 1 0 0-3.6 1.8 1.8 0 0 0 0 3.6m8.9 0a1.8 1.8 0 1 0 0-3.6 1.8 1.8 0 0 0 0 3.6m8.9 0a1.8 1.8 0 1 0 0-3.6 1.8 1.8 0 0 0 0 3.6m8.9 0a1.8 1.8 0 1 0 0-3.6 1.8 1.8 0 0 0 0 3.6m9 0a1.8 1.8 0 1 0 0-3.6 1.8 1.8 0 0 0 0 3.6m8.9 0a1.8 1.8 0 1 0 0-3.6 1.8 1.8 0 0 0 0 3.6m8.9 0a1.8 1.8 0 1 0 0-3.6 1.8 1.8 0 0 0 0 3.6m8.9 0a1.8 1.8 0 1 0 0-3.6 1.8 1.8 0 0 0 0 3.6m8.9 0a1.8 1.8 0 1 0 0-3.6 1.8 1.8 0 0 0 0 3.6m9 0a1.8 1.8 0 1 0 0-3.6 1.8 1.8 0 0 0 0 3.6m8.9 0a1.8 1.8 0 1 0 0-3.6 1.8 1.8 0 0 0 0 3.6m8.8 0a1.8 1.8 0 1 0 0-3.6 1.8 1.8 0 0 0 0 3.6m9 0a1.8 1.8 0 1 0 0-3.6 1.8 1.8 0 0 0 0 3.6m9 0a1.8 1.8 0 1 0 0-3.6 1.8 1.8 0 0 0 0 3.6m-218.6 7.7a1.8 1.8 0 1 0 0-3.5 1.8 1.8 0 0 0 0 3.5m8.9 0a1.8 1.8 0 1 0 0-3.5 1.8 1.8 0 0 0 0 3.5m9 0a1.8 1.8 0 1 0 0-3.5 1.8 1.8 0 0 0 0 3.5m8.9 0a1.8 1.8 0 1 0 0-3.5 1.8 1.8 0 0 0 0 3.5m8.8 0a1.8 1.8 0 1 0 0-3.5 1.8 1.8 0 0 0 0 3.5m9 0a1.8 1.8 0 1 0 0-3.5 1.8 1.8 0 0 0 0 3.5m9 0a1.8 1.8 0 1 0 0-3.5 1.8 1.8 0 0 0 0 3.5m8.8 0a1.8 1.8 0 1 0 0-3.5 1.8 1.8 0 0 0 0 3.5m9 0a1.8 1.8 0 1 0 0-3.5 1.8 1.8 0 0 0 0 3.5m8.9 0a1.8 1.8 0 1 0 0-3.5 1.8 1.8 0 0 0 0 3.5m8.9 0a1.8 1.8 0 1 0 0-3.5 1.8 1.8 0 0 0 0 3.5m8.9 0a1.8 1.8 0 1 0 0-3.5 1.8 1.8 0 0 0 0 3.5m8.9 0a1.8 1.8 0 1 0 0-3.5 1.8 1.8 0 0 0 0 3.5m9 0a1.8 1.8 0 1 0 0-3.5 1.8 1.8 0 0 0 0 3.5m8.9 0a1.8 1.8 0 1 0 0-3.5 1.8 1.8 0 0 0 0 3.5m8.9 0a1.8 1.8 0 1 0 0-3.5 1.8 1.8 0 0 0 0 3.5m8.9 0a1.8 1.8 0 1 0 0-3.5 1.8 1.8 0 0 0 0 3.5m8.9 0a1.8 1.8 0 1 0 0-3.5 1.8 1.8 0 0 0 0 3.5m9 0a1.8 1.8 0 1 0 0-3.5 1.8 1.8 0 0 0 0 3.5m8.9 0a1.8 1.8 0 1 0 0-3.5 1.8 1.8 0 0 0 0 3.5m8.9 0a1.8 1.8 0 1 0 0-3.5 1.8 1.8 0 0 0 0 3.5m8.9 0a1.8 1.8 0 1 0 0-3.5 1.8 1.8 0 0 0 0 3.5m8.9 0a1.8 1.8 0 1 0 0-3.5 1.8 1.8 0 0 0 0 3.5m8.9 0a1.8 1.8 0 1 0 0-3.5 1.8 1.8 0 0 0 0 3.5m9 0a1.8 1.8 0 1 0 0-3.5 1.8 1.8 0 0 0 0 3.5M94 416.3a1.8 1.8 0 1 0 0-3.5 1.8 1.8 0 0 0 0 3.5m9 0a1.8 1.8 0 1 0 0-3.5 1.8 1.8 0 0 0 0 3.5m8.9 0a1.8 1.8 0 1 0 0-3.5 1.8 1.8 0 0 0 0 3.5m8.9 0a1.8 1.8 0 1 0 0-3.5 1.8 1.8 0 0 0 0 3.5m8.9 0a1.8 1.8 0 1 0 0-3.5 1.8 1.8 0 0 0 0 3.5m8.9 0a1.8 1.8 0 1 0 0-3.5 1.8 1.8 0 0 0 0 3.5m8.9 0a1.8 1.8 0 1 0 0-3.5 1.8 1.8 0 0 0 0 3.5m9 0a1.8 1.8 0 1 0 0-3.5 1.8 1.8 0 0 0 0 3.5m8.9 0a1.8 1.8 0 1 0 0-3.5 1.8 1.8 0 0 0 0 3.5m8.9 0a1.8 1.8 0 1 0 0-3.5 1.8 1.8 0 0 0 0 3.5m8.9 0a1.8 1.8 0 1 0 0-3.5 1.8 1.8 0 0 0 0 3.5m8.9 0a1.8 1.8 0 1 0 0-3.5 1.8 1.8 0 0 0 0 3.5m8.9 0a1.8 1.8 0 1 0 0-3.5 1.8 1.8 0 0 0 0 3.5m9 0a1.8 1.8 0 1 0 0-3.5 1.8 1.8 0 0 0 0 3.5m8.9 0a1.8 1.8 0 1 0 0-3.5 1.8 1.8 0 0 0 0 3.5m8.9 0a1.8 1.8 0 1 0 0-3.5 1.8 1.8 0 0 0 0 3.5m8.9 0a1.8 1.8 0 1 0 0-3.5 1.8 1.8 0 0 0 0 3.5m9 0a1.8 1.8 0 1 0 0-3.5 1.8 1.8 0 0 0 0 3.5m8.9 0a1.8 1.8 0 1 0 0-3.5 1.8 1.8 0 0 0 0 3.5m8.9 0a1.8 1.8 0 1 0 0-3.5 1.8 1.8 0 0 0 0 3.5m8.9 0a1.8 1.8 0 1 0 0-3.5 1.8 1.8 0 0 0 0 3.5m8.9 0a1.8 1.8 0 1 0 0-3.5 1.8 1.8 0 0 0 0 3.5m9 0a1.8 1.8 0 1 0 0-3.5 1.8 1.8 0 0 0 0 3.5m8.9 0a1.8 1.8 0 1 0 0-3.5 1.8 1.8 0 0 0 0 3.5m8.8 0a1.8 1.8 0 1 0 0-3.5 1.8 1.8 0 0 0 0 3.5m9 0a1.8 1.8 0 1 0 0-3.5 1.8 1.8 0 0 0 0 3.5M89.6 424a1.8 1.8 0 1 0 0-3.5 1.8 1.8 0 0 0 0 3.6m8.9-.1a1.8 1.8 0 1 0 0-3.5 1.8 1.8 0 0 0 0 3.6m8.9-.1a1.8 1.8 0 1 0 0-3.5 1.8 1.8 0 0 0 0 3.6m8.9-.1a1.8 1.8 0 1 0 0-3.5 1.8 1.8 0 0 0 0 3.6m9-.1a1.8 1.8 0 1 0 0-3.5 1.8 1.8 0 0 0 0 3.6m8.9-.1a1.8 1.8 0 1 0 0-3.5 1.8 1.8 0 0 0 0 3.6m8.8-.1a1.8 1.8 0 1 0 0-3.5 1.8 1.8 0 0 0 0 3.6m9-.1a1.8 1.8 0 1 0 0-3.5 1.8 1.8 0 0 0 0 3.6m9-.1a1.8 1.8 0 1 0 0-3.5 1.8 1.8 0 0 0 0 3.6m8.8-.1a1.8 1.8 0 1 0 0-3.5 1.8 1.8 0 0 0 0 3.6m9-.1a1.8 1.8 0 1 0 0-3.5 1.8 1.8 0 0 0 0 3.6m8.9-.1a1.8 1.8 0 1 0 0-3.5 1.8 1.8 0 0 0 0 3.6m8.9-.1a1.8 1.8 0 1 0 0-3.5 1.8 1.8 0 0 0 0 3.6m8.9-.1a1.8 1.8 0 1 0 0-3.5 1.8 1.8 0 0 0 0 3.6m8.9-.1a1.8 1.8 0 1 0 0-3.5 1.8 1.8 0 0 0 0 3.6m9-.1a1.8 1.8 0 1 0 0-3.5 1.8 1.8 0 0 0 0 3.6m8.9-.1a1.8 1.8 0 1 0 0-3.5 1.8 1.8 0 0 0 0 3.6m8.9-.1a1.8 1.8 0 1 0 0-3.5 1.8 1.8 0 0 0 0 3.6m8.9-.1a1.8 1.8 0 1 0 0-3.5 1.8 1.8 0 0 0 0 3.6m8.9-.1a1.8 1.8 0 1 0 0-3.5 1.8 1.8 0 0 0 0 3.6m9-.1a1.8 1.8 0 1 0 0-3.5 1.8 1.8 0 0 0 0 3.6m8.9-.1a1.8 1.8 0 1 0 0-3.5 1.8 1.8 0 0 0 0 3.6m8.9-.1a1.8 1.8 0 1 0 0-3.5 1.8 1.8 0 0 0 0 3.6m8.9-.1a1.8 1.8 0 1 0 0-3.5 1.8 1.8 0 0 0 0 3.6m8.9-.1a1.8 1.8 0 1 0 0-3.5 1.8 1.8 0 0 0 0 3.6m8.9-.1a1.8 1.8 0 1 0 0-3.5 1.8 1.8 0 0 0 0 3.6M94 431.8a1.8 1.8 0 1 0 0-3.6 1.8 1.8 0 0 0 0 3.6m9 0a1.8 1.8 0 1 0 0-3.6 1.8 1.8 0 0 0 0 3.6m8.9 0a1.8 1.8 0 1 0 0-3.6 1.8 1.8 0 0 0 0 3.6m8.9 0a1.8 1.8 0 1 0 0-3.6 1.8 1.8 0 0 0 0 3.6m8.9 0a1.8 1.8 0 1 0 0-3.6 1.8 1.8 0 0 0 0 3.6m8.9 0a1.8 1.8 0 1 0 0-3.6 1.8 1.8 0 0 0 0 3.6m8.9 0a1.8 1.8 0 1 0 0-3.6 1.8 1.8 0 0 0 0 3.6m9 0a1.8 1.8 0 1 0 0-3.6 1.8 1.8 0 0 0 0 3.6m8.9 0a1.8 1.8 0 1 0 0-3.6 1.8 1.8 0 0 0 0 3.6m8.9 0a1.8 1.8 0 1 0 0-3.6 1.8 1.8 0 0 0 0 3.6m8.9 0a1.8 1.8 0 1 0 0-3.6 1.8 1.8 0 0 0 0 3.6m8.9 0a1.8 1.8 0 1 0 0-3.6 1.8 1.8 0 0 0 0 3.6m8.9 0a1.8 1.8 0 1 0 0-3.6 1.8 1.8 0 0 0 0 3.6m9 0a1.8 1.8 0 1 0 0-3.6 1.8 1.8 0 0 0 0 3.6m8.9 0a1.8 1.8 0 1 0 0-3.6 1.8 1.8 0 0 0 0 3.6m8.9 0a1.8 1.8 0 1 0 0-3.6 1.8 1.8 0 0 0 0 3.6m8.9 0a1.8 1.8 0 1 0 0-3.6 1.8 1.8 0 0 0 0 3.6m9 0a1.8 1.8 0 1 0 0-3.6 1.8 1.8 0 0 0 0 3.6m8.9 0a1.8 1.8 0 1 0 0-3.6 1.8 1.8 0 0 0 0 3.6m8.9 0a1.8 1.8 0 1 0 0-3.6 1.8 1.8 0 0 0 0 3.6m8.9 0a1.8 1.8 0 1 0 0-3.6 1.8 1.8 0 0 0 0 3.6m8.9 0a1.8 1.8 0 1 0 0-3.6 1.8 1.8 0 0 0 0 3.6m9 0a1.8 1.8 0 1 0 0-3.6 1.8 1.8 0 0 0 0 3.6m8.9 0a1.8 1.8 0 1 0 0-3.6 1.8 1.8 0 0 0 0 3.6m8.8 0a1.8 1.8 0 1 0 0-3.6 1.8 1.8 0 0 0 0 3.6m-209.5 7.7a1.8 1.8 0 1 0 0-3.6 1.8 1.8 0 0 0 0 3.6m8.9 0a1.8 1.8 0 1 0 0-3.6 1.8 1.8 0 0 0 0 3.6m8.9 0a1.8 1.8 0 1 0 0-3.6 1.8 1.8 0 0 0 0 3.6m9 0a1.8 1.8 0 1 0 0-3.6 1.8 1.8 0 0 0 0 3.6m8.9 0a1.8 1.8 0 1 0 0-3.6 1.8 1.8 0 0 0 0 3.6m8.8 0a1.8 1.8 0 1 0 0-3.6 1.8 1.8 0 0 0 0 3.6m9 0a1.8 1.8 0 1 0 0-3.6 1.8 1.8 0 0 0 0 3.6m9 0a1.8 1.8 0 1 0 0-3.6 1.8 1.8 0 0 0 0 3.6m8.8 0a1.8 1.8 0 1 0 0-3.6 1.8 1.8 0 0 0 0 3.6m9 0a1.8 1.8 0 1 0 0-3.6 1.8 1.8 0 0 0 0 3.6m8.9 0a1.8 1.8 0 1 0 0-3.6 1.8 1.8 0 0 0 0 3.6m8.9 0a1.8 1.8 0 1 0 0-3.6 1.8 1.8 0 0 0 0 3.6m8.9 0a1.8 1.8 0 1 0 0-3.6 1.8 1.8 0 0 0 0 3.6m8.9 0a1.8 1.8 0 1 0 0-3.6 1.8 1.8 0 0 0 0 3.6m9 0a1.8 1.8 0 1 0 0-3.6 1.8 1.8 0 0 0 0 3.6m8.9 0a1.8 1.8 0 1 0 0-3.6 1.8 1.8 0 0 0 0 3.6m8.9 0a1.8 1.8 0 1 0 0-3.6 1.8 1.8 0 0 0 0 3.6m8.9 0a1.8 1.8 0 1 0 0-3.6 1.8 1.8 0 0 0 0 3.6m8.9 0a1.8 1.8 0 1 0 0-3.6 1.8 1.8 0 0 0 0 3.6m9 0a1.8 1.8 0 1 0 0-3.6 1.8 1.8 0 0 0 0 3.6m8.9 0a1.8 1.8 0 1 0 0-3.6 1.8 1.8 0 0 0 0 3.6m8.9 0a1.8 1.8 0 1 0 0-3.6 1.8 1.8 0 0 0 0 3.6m8.9 0a1.8 1.8 0 1 0 0-3.6 1.8 1.8 0 0 0 0 3.6m8.9 0a1.8 1.8 0 1 0 0-3.6 1.8 1.8 0 0 0 0 3.6m8.9 0a1.8 1.8 0 1 0 0-3.6 1.8 1.8 0 0 0 0 3.6m-182.8 7.7a1.8 1.8 0 1 0 0-3.6 1.8 1.8 0 0 0 0 3.6m8.9 0a1.8 1.8 0 1 0 0-3.6 1.8 1.8 0 0 0 0 3.6m8.9 0a1.8 1.8 0 1 0 0-3.6 1.8 1.8 0 0 0 0 3.6m9 0a1.8 1.8 0 1 0 0-3.6 1.8 1.8 0 0 0 0 3.6m8.9 0a1.8 1.8 0 1 0 0-3.6 1.8 1.8 0 0 0 0 3.6m8.9 0a1.8 1.8 0 1 0 0-3.6 1.8 1.8 0 0 0 0 3.6m8.9 0a1.8 1.8 0 1 0 0-3.6 1.8 1.8 0 0 0 0 3.6m8.9 0a1.8 1.8 0 1 0 0-3.6 1.8 1.8 0 0 0 0 3.6m8.9 0a1.8 1.8 0 1 0 0-3.6 1.8 1.8 0 0 0 0 3.6m9 0a1.8 1.8 0 1 0 0-3.6 1.8 1.8 0 0 0 0 3.6m8.9 0a1.8 1.8 0 1 0 0-3.6 1.8 1.8 0 0 0 0 3.6m8.9 0a1.8 1.8 0 1 0 0-3.6 1.8 1.8 0 0 0 0 3.6m8.9 0a1.8 1.8 0 1 0 0-3.6 1.8 1.8 0 0 0 0 3.6m9 0a1.8 1.8 0 1 0 0-3.6 1.8 1.8 0 0 0 0 3.6m8.9 0a1.8 1.8 0 1 0 0-3.6 1.8 1.8 0 0 0 0 3.6m8.9 0a1.8 1.8 0 1 0 0-3.6 1.8 1.8 0 0 0 0 3.6m8.9 0a1.8 1.8 0 1 0 0-3.6 1.8 1.8 0 0 0 0 3.6m8.9 0a1.8 1.8 0 1 0 0-3.6 1.8 1.8 0 0 0 0 3.6m9 0a1.8 1.8 0 1 0 0-3.6 1.8 1.8 0 0 0 0 3.6m8.9 0a1.8 1.8 0 1 0 0-3.6 1.8 1.8 0 0 0 0 3.6m8.8 0a1.8 1.8 0 1 0 0-3.6 1.8 1.8 0 0 0 0 3.6M143 455a1.8 1.8 0 1 0 0-3.6 1.8 1.8 0 0 0 0 3.5m9 .1a1.8 1.8 0 1 0 0-3.6 1.8 1.8 0 0 0 0 3.5m9 .1a1.8 1.8 0 1 0 0-3.6 1.8 1.8 0 0 0 0 3.5m8.8.1a1.8 1.8 0 1 0 0-3.6 1.8 1.8 0 0 0 0 3.5m9 .1a1.8 1.8 0 1 0 0-3.6 1.8 1.8 0 0 0 0 3.5m8.9.1a1.8 1.8 0 1 0 0-3.6 1.8 1.8 0 0 0 0 3.5m8.9.1a1.8 1.8 0 1 0 0-3.6 1.8 1.8 0 0 0 0 3.5m8.9.1a1.8 1.8 0 1 0 0-3.6 1.8 1.8 0 0 0 0 3.5m8.9.1a1.8 1.8 0 1 0 0-3.6 1.8 1.8 0 0 0 0 3.5m9 .1a1.8 1.8 0 1 0 0-3.6 1.8 1.8 0 0 0 0 3.5m8.9.1a1.8 1.8 0 1 0 0-3.6 1.8 1.8 0 0 0 0 3.5m8.9.1a1.8 1.8 0 1 0 0-3.6 1.8 1.8 0 0 0 0 3.5m8.9.1a1.8 1.8 0 1 0 0-3.6 1.8 1.8 0 0 0 0 3.5m8.9.1a1.8 1.8 0 1 0 0-3.6 1.8 1.8 0 0 0 0 3.5m9 .1a1.8 1.8 0 1 0 0-3.6 1.8 1.8 0 0 0 0 3.5m8.9.1a1.8 1.8 0 1 0 0-3.6 1.8 1.8 0 0 0 0 3.5m8.9.1a1.8 1.8 0 1 0 0-3.6 1.8 1.8 0 0 0 0 3.5m8.9.1a1.8 1.8 0 1 0 0-3.6 1.8 1.8 0 0 0 0 3.5m8.9.1a1.8 1.8 0 1 0 0-3.6 1.8 1.8 0 0 0 0 3.5m8.9.1a1.8 1.8 0 1 0 0-3.6 1.8 1.8 0 0 0 0 3.5m-191.7 7.8a1.8 1.8 0 1 0 0-3.6 1.8 1.8 0 0 0 0 3.5m8.9.1a1.8 1.8 0 1 0 0-3.6 1.8 1.8 0 0 0 0 3.5m8.9.1a1.8 1.8 0 1 0 0-3.6 1.8 1.8 0 0 0 0 3.5m8.9.1a1.8 1.8 0 1 0 0-3.6 1.8 1.8 0 0 0 0 3.5m9 .1a1.8 1.8 0 1 0 0-3.6 1.8 1.8 0 0 0 0 3.5m8.9.1a1.8 1.8 0 1 0 0-3.6 1.8 1.8 0 0 0 0 3.5m8.9.1a1.8 1.8 0 1 0 0-3.6 1.8 1.8 0 0 0 0 3.5m8.9.1a1.8 1.8 0 1 0 0-3.6 1.8 1.8 0 0 0 0 3.5m8.9.1a1.8 1.8 0 1 0 0-3.6 1.8 1.8 0 0 0 0 3.5m8.9.1a1.8 1.8 0 1 0 0-3.6 1.8 1.8 0 0 0 0 3.5m9 .1a1.8 1.8 0 1 0 0-3.6 1.8 1.8 0 0 0 0 3.5m8.9.1a1.8 1.8 0 1 0 0-3.6 1.8 1.8 0 0 0 0 3.5m8.9.1a1.8 1.8 0 1 0 0-3.6 1.8 1.8 0 0 0 0 3.5m8.9.1a1.8 1.8 0 1 0 0-3.6 1.8 1.8 0 0 0 0 3.5m9 .1a1.8 1.8 0 1 0 0-3.6 1.8 1.8 0 0 0 0 3.5m8.9.1a1.8 1.8 0 1 0 0-3.6 1.8 1.8 0 0 0 0 3.5m8.9.1a1.8 1.8 0 1 0 0-3.6 1.8 1.8 0 0 0 0 3.5m8.9.1a1.8 1.8 0 1 0 0-3.6 1.8 1.8 0 0 0 0 3.5m8.9.1a1.8 1.8 0 1 0 0-3.6 1.8 1.8 0 0 0 0 3.5m9 .1a1.8 1.8 0 1 0 0-3.6 1.8 1.8 0 0 0 0 3.5m8.9.1a1.8 1.8 0 1 0 0-3.6 1.8 1.8 0 0 0 0 3.5m8.8.1a1.8 1.8 0 1 0 0-3.6 1.8 1.8 0 0 0 0 3.5m9 .1a1.8 1.8 0 1 0 0-3.6 1.8 1.8 0 0 0 0 3.5m-200.7 7.8a1.8 1.8 0 1 0 0-3.6 1.8 1.8 0 0 0 0 3.6m9 0a1.8 1.8 0 1 0 0-3.6 1.8 1.8 0 0 0 0 3.6m8.9 0a1.8 1.8 0 1 0 0-3.6 1.8 1.8 0 0 0 0 3.6m8.8 0a1.8 1.8 0 1 0 0-3.6 1.8 1.8 0 0 0 0 3.6m9 0a1.8 1.8 0 1 0 0-3.6 1.8 1.8 0 0 0 0 3.6m9 0a1.8 1.8 0 1 0 0-3.6 1.8 1.8 0 0 0 0 3.6m8.8 0a1.8 1.8 0 1 0 0-3.6 1.8 1.8 0 0 0 0 3.6m9 0a1.8 1.8 0 1 0 0-3.6 1.8 1.8 0 0 0 0 3.6m8.9 0a1.8 1.8 0 1 0 0-3.6 1.8 1.8 0 0 0 0 3.6m8.9 0a1.8 1.8 0 1 0 0-3.6 1.8 1.8 0 0 0 0 3.6m8.9 0a1.8 1.8 0 1 0 0-3.6 1.8 1.8 0 0 0 0 3.6m8.9 0a1.8 1.8 0 1 0 0-3.6 1.8 1.8 0 0 0 0 3.6m9 0a1.8 1.8 0 1 0 0-3.6 1.8 1.8 0 0 0 0 3.6m8.9 0a1.8 1.8 0 1 0 0-3.6 1.8 1.8 0 0 0 0 3.6m8.9 0a1.8 1.8 0 1 0 0-3.6 1.8 1.8 0 0 0 0 3.6m8.9 0a1.8 1.8 0 1 0 0-3.6 1.8 1.8 0 0 0 0 3.6m8.9 0a1.8 1.8 0 1 0 0-3.6 1.8 1.8 0 0 0 0 3.6m9 0a1.8 1.8 0 1 0 0-3.6 1.8 1.8 0 0 0 0 3.6m8.9 0a1.8 1.8 0 1 0 0-3.6 1.8 1.8 0 0 0 0 3.6m8.9 0a1.8 1.8 0 1 0 0-3.6 1.8 1.8 0 0 0 0 3.6m8.9 0a1.8 1.8 0 1 0 0-3.6 1.8 1.8 0 0 0 0 3.6m8.9 0a1.8 1.8 0 1 0 0-3.6 1.8 1.8 0 0 0 0 3.6M111.9 478a1.8 1.8 0 1 0 0-3.5 1.8 1.8 0 0 0 0 3.6m8.9-.1a1.8 1.8 0 1 0 0-3.5 1.8 1.8 0 0 0 0 3.6m8.9-.1a1.8 1.8 0 1 0 0-3.5 1.8 1.8 0 0 0 0 3.6m8.9-.1a1.8 1.8 0 1 0 0-3.5 1.8 1.8 0 0 0 0 3.6m8.9-.1a1.8 1.8 0 1 0 0-3.5 1.8 1.8 0 0 0 0 3.6m9-.1a1.8 1.8 0 1 0 0-3.5 1.8 1.8 0 0 0 0 3.6m8.9-.1a1.8 1.8 0 1 0 0-3.5 1.8 1.8 0 0 0 0 3.6m8.9-.1a1.8 1.8 0 1 0 0-3.5 1.8 1.8 0 0 0 0 3.6m8.9-.1a1.8 1.8 0 1 0 0-3.5 1.8 1.8 0 0 0 0 3.6m8.9-.1a1.8 1.8 0 1 0 0-3.5 1.8 1.8 0 0 0 0 3.6m8.9-.1a1.8 1.8 0 1 0 0-3.5 1.8 1.8 0 0 0 0 3.6m9-.1a1.8 1.8 0 1 0 0-3.5 1.8 1.8 0 0 0 0 3.6m8.9-.1a1.8 1.8 0 1 0 0-3.5 1.8 1.8 0 0 0 0 3.6m8.9-.1a1.8 1.8 0 1 0 0-3.5 1.8 1.8 0 0 0 0 3.6m8.9-.1a1.8 1.8 0 1 0 0-3.5 1.8 1.8 0 0 0 0 3.6m9-.1a1.8 1.8 0 1 0 0-3.5 1.8 1.8 0 0 0 0 3.6m8.9-.1a1.8 1.8 0 1 0 0-3.5 1.8 1.8 0 0 0 0 3.6m8.9-.1a1.8 1.8 0 1 0 0-3.5 1.8 1.8 0 0 0 0 3.6m8.9-.1a1.8 1.8 0 1 0 0-3.5 1.8 1.8 0 0 0 0 3.6m8.9-.1a1.8 1.8 0 1 0 0-3.5 1.8 1.8 0 0 0 0 3.6m9-.1a1.8 1.8 0 1 0 0-3.5 1.8 1.8 0 0 0 0 3.6m8.9-.1a1.8 1.8 0 1 0 0-3.5 1.8 1.8 0 0 0 0 3.6m-200.7 7.7a1.8 1.8 0 1 0 0-3.6 1.8 1.8 0 0 0 0 3.6m8.9 0a1.8 1.8 0 1 0 0-3.6 1.8 1.8 0 0 0 0 3.6m8.9 0a1.8 1.8 0 1 0 0-3.6 1.8 1.8 0 0 0 0 3.6m9 0a1.8 1.8 0 1 0 0-3.6 1.8 1.8 0 0 0 0 3.6m8.9 0a1.8 1.8 0 1 0 0-3.6 1.8 1.8 0 0 0 0 3.6m8.8 0a1.8 1.8 0 1 0 0-3.6 1.8 1.8 0 0 0 0 3.6m9 0a1.8 1.8 0 1 0 0-3.6 1.8 1.8 0 0 0 0 3.6m9 0a1.8 1.8 0 1 0 0-3.6 1.8 1.8 0 0 0 0 3.6m8.8 0a1.8 1.8 0 1 0 0-3.6 1.8 1.8 0 0 0 0 3.6m9 0a1.8 1.8 0 1 0 0-3.6 1.8 1.8 0 0 0 0 3.6m8.9 0a1.8 1.8 0 1 0 0-3.6 1.8 1.8 0 0 0 0 3.6m8.9 0a1.8 1.8 0 1 0 0-3.6 1.8 1.8 0 0 0 0 3.6m8.9 0a1.8 1.8 0 1 0 0-3.6 1.8 1.8 0 0 0 0 3.6m8.9 0a1.8 1.8 0 1 0 0-3.6 1.8 1.8 0 0 0 0 3.6m9 0a1.8 1.8 0 1 0 0-3.6 1.8 1.8 0 0 0 0 3.6m8.9 0a1.8 1.8 0 1 0 0-3.6 1.8 1.8 0 0 0 0 3.6m8.9 0a1.8 1.8 0 1 0 0-3.6 1.8 1.8 0 0 0 0 3.6m8.9 0a1.8 1.8 0 1 0 0-3.6 1.8 1.8 0 0 0 0 3.6m8.9 0a1.8 1.8 0 1 0 0-3.6 1.8 1.8 0 0 0 0 3.6m9 0a1.8 1.8 0 1 0 0-3.6 1.8 1.8 0 0 0 0 3.6m8.9 0a1.8 1.8 0 1 0 0-3.6 1.8 1.8 0 0 0 0 3.6m8.9 0a1.8 1.8 0 1 0 0-3.6 1.8 1.8 0 0 0 0 3.6M94 493.5a1.8 1.8 0 1 0 0-3.5 1.8 1.8 0 0 0 0 3.5m9 0a1.8 1.8 0 1 0 0-3.5 1.8 1.8 0 0 0 0 3.5m8.9 0a1.8 1.8 0 1 0 0-3.5 1.8 1.8 0 0 0 0 3.5m8.9 0a1.8 1.8 0 1 0 0-3.5 1.8 1.8 0 0 0 0 3.5m8.9 0a1.8 1.8 0 1 0 0-3.5 1.8 1.8 0 0 0 0 3.5m8.9 0a1.8 1.8 0 1 0 0-3.5 1.8 1.8 0 0 0 0 3.5m8.9 0a1.8 1.8 0 1 0 0-3.5 1.8 1.8 0 0 0 0 3.5m9 0a1.8 1.8 0 1 0 0-3.5 1.8 1.8 0 0 0 0 3.5m17.8 0a1.8 1.8 0 1 0 0-3.5 1.8 1.8 0 0 0 0 3.5m8.9 0a1.8 1.8 0 1 0 0-3.5 1.8 1.8 0 0 0 0 3.5m8.9 0a1.8 1.8 0 1 0 0-3.5 1.8 1.8 0 0 0 0 3.5m8.9 0a1.8 1.8 0 1 0 0-3.5 1.8 1.8 0 0 0 0 3.5m9 0a1.8 1.8 0 1 0 0-3.5 1.8 1.8 0 0 0 0 3.5m8.9 0a1.8 1.8 0 1 0 0-3.5 1.8 1.8 0 0 0 0 3.5m-129.3 7.7a1.8 1.8 0 1 0 0-3.5 1.8 1.8 0 0 0 0 3.5m8.9 0a1.8 1.8 0 1 0 0-3.5 1.8 1.8 0 0 0 0 3.5m8.9 0a1.8 1.8 0 1 0 0-3.5 1.8 1.8 0 0 0 0 3.5m8.9 0a1.8 1.8 0 1 0 0-3.5 1.8 1.8 0 0 0 0 3.5m9 0a1.8 1.8 0 1 0 0-3.5 1.8 1.8 0 0 0 0 3.5m8.9 0a1.8 1.8 0 1 0 0-3.5 1.8 1.8 0 0 0 0 3.5m8.8 0a1.8 1.8 0 1 0 0-3.5 1.8 1.8 0 0 0 0 3.5m9 0a1.8 1.8 0 1 0 0-3.5 1.8 1.8 0 0 0 0 3.5m26.8 0a1.8 1.8 0 1 0 0-3.5 1.8 1.8 0 0 0 0 3.5m8.9 0a1.8 1.8 0 1 0 0-3.5 1.8 1.8 0 0 0 0 3.5M85.1 509a1.8 1.8 0 1 0 0-3.6 1.8 1.8 0 0 0 0 3.6m8.9 0a1.8 1.8 0 1 0 0-3.6 1.8 1.8 0 0 0 0 3.6m9 0a1.8 1.8 0 1 0 0-3.6 1.8 1.8 0 0 0 0 3.6m8.9 0a1.8 1.8 0 1 0 0-3.6 1.8 1.8 0 0 0 0 3.6m8.9 0a1.8 1.8 0 1 0 0-3.6 1.8 1.8 0 0 0 0 3.6m8.9 0a1.8 1.8 0 1 0 0-3.6 1.8 1.8 0 0 0 0 3.6m8.9 0a1.8 1.8 0 1 0 0-3.6 1.8 1.8 0 0 0 0 3.6m8.9 0a1.8 1.8 0 1 0 0-3.6 1.8 1.8 0 0 0 0 3.6m-75.8 7.7a1.8 1.8 0 1 0 0-3.6 1.8 1.8 0 0 0 0 3.6m9 0a1.8 1.8 0 1 0 0-3.6 1.8 1.8 0 0 0 0 3.6m8.9 0a1.8 1.8 0 1 0 0-3.6 1.8 1.8 0 0 0 0 3.6m8.9 0a1.8 1.8 0 1 0 0-3.6 1.8 1.8 0 0 0 0 3.6m35.7 0a1.8 1.8 0 1 0 0-3.6 1.8 1.8 0 0 0 0 3.6m8.8 0a1.8 1.8 0 1 0 0-3.6 1.8 1.8 0 0 0 0 3.6m-75.7 7.7a1.8 1.8 0 1 0 0-3.6 1.8 1.8 0 0 0 0 3.6m8.9 0a1.8 1.8 0 1 0 0-3.6 1.8 1.8 0 0 0 0 3.6m8.9 0a1.8 1.8 0 1 0 0-3.6 1.8 1.8 0 0 0 0 3.6m8.9 0a1.8 1.8 0 1 0 0-3.6 1.8 1.8 0 0 0 0 3.6m-13.3 7.7a1.8 1.8 0 1 0 0-3.6 1.8 1.8 0 0 0 0 3.6"/></svg>