<svg xmlns="http://www.w3.org/2000/svg" viewBox="0 0 592.625 172.000" fill="currentColor">
  <path d="M58.5 14.875C55.75 17.375 50.75 18.5 36.25 18.5L35.5 21.375C44.25 21.375 45.375 23.875 43.0 30.875L20.5 100.625C18.75 105.625 17.75 108.75 17.75 111.625C17.75 116.125 20.0 119.625 26.625 119.625C36.75 119.625 45.0 107.0 49.5 95.875H46.625C42.375 105.0 36.875 112.875 32.25 112.875C30.5 112.875 30.0 111.875 30.0 110.0C30.0 108.25 31.375 103.875 32.375 101.0L60.0 15.75Z"/>
  <path d="M45.0 146.75C59.625 146.75 71.875 132.25 84.125 115.0C99.75 93.875 108.625 75.375 108.625 61.875C108.625 54.125 106.125 50.5 102.625 50.5C99.625 50.5 97.875 52.875 97.875 55.375C97.875 59.25 101.375 63.0 101.375 69.75C101.375 80.625 94.25 96.25 81.5 112.625C83.125 96.25 83.5 78.125 83.375 68.0C83.125 55.375 80.625 50.75 74.125 50.75C65.875 50.75 60.5 61.375 55.875 73.75H58.75C62.625 64.125 65.875 58.0 68.625 58.0C70.75 58.0 71.75 60.0 71.875 68.5C72.125 78.125 72.375 103.375 70.75 123.5C66.5 131.125 61.25 138.375 56.5 138.375C52.375 138.375 50.625 134.125 45.75 134.125C41.625 134.125 37.875 137.5 37.875 141.625C37.875 144.625 40.25 146.75 45.0 146.75Z"/>
  <path d="M124.625 118.5C140.25 72.5 150.875 61.125 156.625 61.125C159.25 61.125 160.5 62.5 163.0 62.5C166.375 62.5 169.625 58.5 169.625 54.625C169.625 51.875 168.0 50.375 165.0 50.375C154.625 50.375 143.875 62.625 133.125 90.625H132.0L139.375 70.625C141.5 65.25 143.375 60.875 143.375 57.625C143.375 54.0 141.25 50.75 136.75 50.75C127.625 50.75 118.25 60.75 112.5 71.875H115.5C120.25 64.0 125.75 57.375 129.5 57.375C130.5 57.375 131.125 57.875 131.125 59.5C131.125 61.25 129.5 66.5 128.125 70.625L112.25 118.5Z"/>
  <path d="M169.5 100.75C167.75 105.75 166.375 108.75 166.375 111.625C166.375 116.125 168.625 119.625 175.25 119.625C185.5 119.625 193.625 107.0 198.125 95.875H195.25C191.125 105.0 185.5 112.875 180.875 112.875C179.125 112.875 178.625 111.875 178.625 110.0C178.625 108.25 180.25 103.875 181.25 101.125L192.125 70.75C194.125 65.25 195.75 60.875 195.75 57.625C195.75 54.0 193.625 50.75 189.125 50.75C180.0 50.75 170.625 60.75 164.875 71.875H167.875C172.625 64.0 178.125 57.375 181.875 57.375C182.875 57.375 183.5 57.875 183.5 59.5C183.5 61.25 181.75 66.375 180.25 70.5Z"/>
  <path d="M196.250 38.000C191.050 38.000 188.250 31.025 188.250 27.150C188.250 22.500 196.250 22.500 196.250 22.500C196.250 22.500 204.250 22.500 204.250 27.150C204.250 31.025 201.450 38.000 196.250 38.000Z"/>
  <path d="M218.25 120.25C229.0 120.25 238.75 110.25 245.625 93.25H242.875C237.25 104.375 230.25 112.125 223.375 112.125C217.5 112.125 215.25 105.875 215.25 97.625C215.25 80.25 226.125 55.125 238.125 55.125C241.75 55.125 243.0 57.25 243.0 59.625C243.0 66.125 236.25 66.375 236.25 71.5C236.25 74.0 238.0 76.125 240.75 76.125C245.75 76.125 249.875 68.875 249.875 61.875C249.875 54.5 244.875 50.25 238.25 50.25C220.0 50.25 202.625 77.625 202.625 99.875C202.625 112.5 208.625 120.25 218.25 120.25Z"/>
  <path d="M325.625 50.5C322.5 50.5 321.125 52.875 321.125 55.375C321.125 59.25 324.625 63.75 324.625 69.875C324.625 84.75 310.5 110.875 299.0 110.875C293.5 110.875 291.5 106.0 291.5 99.625C291.5 85.625 303.0 66.375 315.0 52.875L312.875 50.75L312.25 51.375C311.375 52.0 310.5 52.625 308.625 52.625C305.5 52.625 298.375 51.125 295.0 51.125C290.625 51.125 288.0 53.875 285.75 58.375C284.125 61.75 283.25 64.75 283.25 66.75C283.25 69.875 285.0 71.0 286.625 71.0C288.625 71.0 290.125 69.375 290.125 67.375C290.125 64.25 287.0 63.25 287.0 60.5C287.0 59.125 287.875 58.125 289.625 58.125C292.75 58.125 300.125 60.75 303.125 60.75H303.25C291.0 74.125 279.25 90.0 279.25 104.125C279.25 114.5 284.25 120.25 292.375 120.25C311.125 120.25 331.75 80.875 331.75 59.125C331.75 53.625 329.25 50.5 325.625 50.5Z"/>
  <path d="M352.625 120.25C371.25 120.25 389.25 95.75 389.25 72.125C389.25 59.0 381.75 50.375 370.625 50.375C352.125 50.375 334.125 75.0 334.125 98.75C334.125 112.0 341.625 120.25 352.625 120.25ZM353.625 114.875C348.25 114.875 346.0 110.125 346.0 102.625C346.0 82.75 359.0 55.625 369.75 55.625C375.125 55.625 377.5 60.5 377.5 68.125C377.5 88.25 364.375 114.875 353.625 114.875Z"/>
  <path d="M399.75 100.75C398.0 105.75 396.625 108.75 396.625 111.625C396.625 116.125 398.875 119.625 405.5 119.625C415.75 119.625 423.875 107.0 428.375 95.875H425.5C421.375 105.0 415.75 112.875 411.125 112.875C409.375 112.875 408.875 111.875 408.875 110.0C408.875 108.25 410.5 103.875 411.5 101.125L422.375 70.75C424.375 65.25 426.0 60.875 426.0 57.625C426.0 54.0 423.875 50.75 419.375 50.75C410.25 50.75 400.875 60.75 395.125 71.875H398.125C402.875 64.0 408.375 57.375 412.125 57.375C413.125 57.375 413.75 57.875 413.75 59.5C413.75 61.25 412.0 66.375 410.5 70.5Z"/>
  <path d="M426.500 38.000C421.300 38.000 418.500 31.025 418.500 27.150C418.500 22.500 426.500 22.500 426.500 22.500C426.500 22.500 434.500 22.500 434.500 27.150C434.500 31.025 431.700 38.000 426.500 38.000Z"/>
  <path d="M448.5 120.25C459.25 120.25 469.0 110.25 475.875 93.25H473.125C467.5 104.375 460.5 112.125 453.625 112.125C447.75 112.125 445.5 105.875 445.5 97.625C445.5 80.25 456.375 55.125 468.375 55.125C472.0 55.125 473.25 57.25 473.25 59.625C473.25 66.125 466.5 66.375 466.5 71.5C466.5 74.0 468.25 76.125 471.0 76.125C476.0 76.125 480.125 68.875 480.125 61.875C480.125 54.5 475.125 50.25 468.5 50.25C450.25 50.25 432.875 77.625 432.875 99.875C432.875 112.5 438.875 120.25 448.5 120.25Z"/>
  <path d="M503.25 112.25C497.625 112.25 493.875 108.375 493.875 100.25C493.875 97.25 494.25 93.75 495.0 90.125C512.25 87.5 529.875 75.75 529.875 61.75C529.875 55.0 525.25 50.375 517.875 50.375C499.5 50.375 481.375 79.75 481.375 101.0C481.375 113.375 487.875 120.25 497.75 120.25C509.625 120.25 519.625 109.125 526.625 91.875H523.875C517.625 104.5 510.625 112.25 503.25 112.25ZM517.125 55.125C520.25 55.125 521.25 57.25 521.25 60.875C521.25 72.5 509.375 82.75 496.0 86.125C499.75 71.375 508.25 55.125 517.125 55.125Z"/>
  <path d="M547.25 120.25C559.25 120.25 568.25 111.5 568.25 100.125C568.25 94.125 565.625 90.125 560.875 82.75L557.75 77.625C554.375 72.75 552.125 68.375 552.125 64.0C552.125 57.875 555.875 54.5 560.875 54.5C565.75 54.5 567.625 57.25 568.875 60.75C569.75 63.75 570.75 65.75 573.375 65.75C576.125 65.75 578.75 63.5 578.75 60.125C578.75 55.875 573.875 50.125 563.875 50.125C551.875 50.125 541.75 58.25 541.75 70.0C541.75 76.25 544.5 80.75 549.125 87.625L552.5 92.875C555.625 97.25 557.875 100.875 557.875 105.625C557.875 111.5 555.0 115.75 549.25 115.75C544.125 115.75 541.25 112.75 539.0 106.875C537.75 103.375 536.875 101.75 534.375 101.75C531.375 101.75 529.0 104.0 529.0 107.375C529.0 114.25 537.375 120.25 547.25 120.25Z"/>
</svg>