<svg xmlns="http://www.w3.org/2000/svg" viewBox="0 0 265.625 172.000" fill="currentColor">
  <path d="M58.5 14.875C55.75 17.375 50.75 18.5 36.25 18.5L35.5 21.375C44.25 21.375 45.375 23.875 43.0 30.875L20.5 100.625C18.75 105.625 17.75 108.75 17.75 111.625C17.75 116.125 20.0 119.625 26.625 119.625C36.75 119.625 45.0 107.0 49.5 95.875H46.625C42.375 105.0 36.875 112.875 32.25 112.875C30.5 112.875 30.0 111.875 30.0 110.0C30.0 108.25 31.375 103.875 32.375 101.0L60.0 15.75Z"/>
  <path d="M45.0 146.75C59.625 146.75 71.875 132.25 84.125 115.0C99.75 93.875 108.625 75.375 108.625 61.875C108.625 54.125 106.125 50.5 102.625 50.5C99.625 50.5 97.875 52.875 97.875 55.375C97.875 59.25 101.375 63.0 101.375 69.75C101.375 80.625 94.25 96.25 81.5 112.625C83.125 96.25 83.5 78.125 83.375 68.0C83.125 55.375 80.625 50.75 74.125 50.75C65.875 50.75 60.5 61.375 55.875 73.75H58.75C62.625 64.125 65.875 58.0 68.625 58.0C70.75 58.0 71.75 60.0 71.875 68.5C72.125 78.125 72.375 103.375 70.75 123.5C66.5 131.125 61.25 138.375 56.5 138.375C52.375 138.375 50.625 134.125 45.75 134.125C41.625 134.125 37.875 137.5 37.875 141.625C37.875 144.625 40.25 146.75 45.0 146.75Z"/>
  <path d="M124.625 118.5C140.25 72.5 150.875 61.125 156.625 61.125C159.25 61.125 160.5 62.5 163.0 62.5C166.375 62.5 169.625 58.5 169.625 54.625C169.625 51.875 168.0 50.375 165.0 50.375C154.625 50.375 143.875 62.625 133.125 90.625H132.0L139.375 70.625C141.5 65.25 143.375 60.875 143.375 57.625C143.375 54.0 141.25 50.75 136.75 50.75C127.625 50.75 118.25 60.75 112.5 71.875H115.5C120.25 64.0 125.75 57.375 129.5 57.375C130.5 57.375 131.125 57.875 131.125 59.5C131.125 61.25 129.5 66.5 128.125 70.625L112.25 118.5Z"/>
  <path d="M169.5 100.75C167.75 105.75 166.375 108.75 166.375 111.625C166.375 116.125 168.625 119.625 175.25 119.625C185.5 119.625 193.625 107.0 198.125 95.875H195.25C191.125 105.0 185.5 112.875 180.875 112.875C179.125 112.875 178.625 111.875 178.625 110.0C178.625 108.25 180.25 103.875 181.25 101.125L192.125 70.75C194.125 65.25 195.75 60.875 195.75 57.625C195.75 54.0 193.625 50.75 189.125 50.75C180.0 50.75 170.625 60.75 164.875 71.875H167.875C172.625 64.0 178.125 57.375 181.875 57.375C182.875 57.375 183.5 57.875 183.5 59.5C183.5 61.25 181.75 66.375 180.25 70.5Z"/>
  <path d="M218.25 120.25C229.0 120.25 238.75 110.25 245.625 93.25H242.875C237.25 104.375 230.25 112.125 223.375 112.125C217.5 112.125 215.25 105.875 215.25 97.625C215.25 80.25 226.125 55.125 238.125 55.125C241.75 55.125 243.0 57.25 243.0 59.625C243.0 66.125 236.25 66.375 236.25 71.5C236.25 74.0 238.0 76.125 240.75 76.125C245.75 76.125 249.875 68.875 249.875 61.875C249.875 54.5 244.875 50.25 238.25 50.25C220.0 50.25 202.625 77.625 202.625 99.875C202.625 112.5 208.625 120.25 218.25 120.25Z"/>
</svg>