<svg xmlns="http://www.w3.org/2000/svg" viewBox="0 0 598.875 172.000" fill="currentColor">
  <path d="M39.5 17.25 37.625 15.5 18.625 24.75 19.875 27.5C27.375 23.75 27.375 25.375 27.375 33.375V105.625C27.375 113.625 26.125 115.5 18.5 115.5V118.5H48.25V115.5C40.625 115.5 39.5 113.625 39.5 105.625Z"/>
  <path d="M62.875 147.75C74.625 147.375 79.75 134.875 84.875 117.75L100.625 64.625C102.875 56.875 105.125 55.25 110.125 55.25V52.25H89.5V55.25C97.625 55.25 97.625 56.875 95.5 64.625L85.125 101.375H84.5L74.0 64.625C71.75 56.875 71.75 55.25 80.0 55.25V52.25H50.75V55.25C56.25 55.25 58.5 56.875 61.0 64.625L76.5 114.0C77.5 118.75 77.875 123.625 77.5 125.875C75.25 134.5 72.625 139.375 69.375 139.375C67.5 139.375 66.375 138.75 64.875 136.5C63.5 134.625 61.875 132.75 58.75 132.75C55.25 132.75 52.5 135.0 52.5 139.125C52.5 144.25 57.0 147.75 62.875 147.75Z"/>
  <path d="M151.5 50.0C144.625 50.0 138.5 57.0 135.0 63.625H134.625V51.625L132.375 49.75L123.875 53.25L113.875 57.25L115.125 60.125C122.625 57.0 122.625 58.75 122.625 67.125V105.625C122.625 113.625 121.375 115.5 114.125 115.5V118.5H147.875V115.375C136.5 115.375 134.625 113.375 134.625 104.875V71.625C137.25 64.0 140.625 59.875 143.5 59.875C145.0 59.875 145.625 60.375 147.25 62.0C148.875 63.75 149.875 64.625 152.125 64.625C155.375 64.625 158.25 61.5 158.25 56.625C158.25 52.5 155.875 50.0 151.5 50.0Z"/>
  <path d="M184.25 51.625 182.125 49.75 163.75 57.125 164.875 60.0C172.125 57.0 172.25 58.75 172.25 67.125V105.625C172.25 113.625 171.0 115.5 163.375 115.5V118.5H193.125V115.5C185.5 115.5 184.25 113.625 184.25 105.625Z"/>
  <path d="M222.125 120.5C233.375 120.5 242.5 111.75 243.875 91.0H240.875C238.625 106.75 232.25 111.0 226.625 111.0C216.375 111.0 211.375 98.0 211.375 81.75C211.375 67.625 215.125 55.25 224.125 55.25C227.875 55.25 230.25 57.375 230.25 61.625C230.25 64.25 229.375 66.75 229.375 68.875C229.375 72.0 231.375 74.625 235.25 74.625C239.5 74.625 241.875 71.5 241.875 66.25C241.875 56.875 234.75 50.0 224.25 50.0C208.125 50.0 199.0 65.75 199.0 86.5C199.0 106.5 207.5 120.5 222.125 120.5Z"/>
  <path d="M306.75 101.25H306.0L295.5 64.625C293.25 56.875 293.25 55.25 301.625 55.25V52.25H272.625V55.25C277.875 55.25 280.125 56.875 282.5 64.625L299.5 119.5H306.25L323.25 64.625C325.625 56.875 328.0 55.25 333.75 55.25V52.25H312.125V55.25C320.375 55.25 320.25 56.875 317.875 64.625Z"/>
  <path d="M365.0 120.5C381.875 120.5 391.875 105.0 391.875 84.875C391.875 64.375 381.125 50.0 365.0 50.0C348.0 50.0 338.125 65.5 338.125 85.625C338.125 106.125 348.75 120.5 365.0 120.5ZM366.875 115.0C355.875 115.0 350.625 95.25 350.625 78.25C350.625 67.25 354.25 55.5 363.125 55.5C374.125 55.5 379.25 75.25 379.25 92.25C379.25 103.25 375.75 115.0 366.875 115.0Z"/>
  <path d="M420.0 51.625 417.875 49.75 399.5 57.125 400.625 60.0C407.875 57.0 408.0 58.75 408.0 67.125V105.625C408.0 113.625 406.75 115.5 399.125 115.5V118.5H428.875V115.5C421.25 115.5 420.0 113.625 420.0 105.625Z"/>
  <path d="M457.875 120.5C469.125 120.5 478.25 111.75 479.625 91.0H476.625C474.375 106.75 468.0 111.0 462.375 111.0C452.125 111.0 447.125 98.0 447.125 81.75C447.125 67.625 450.875 55.25 459.875 55.25C463.625 55.25 466.0 57.375 466.0 61.625C466.0 64.25 465.125 66.75 465.125 68.875C465.125 72.0 467.125 74.625 471.0 74.625C475.25 74.625 477.625 71.5 477.625 66.25C477.625 56.875 470.5 50.0 460.0 50.0C443.875 50.0 434.75 65.75 434.75 86.5C434.75 106.5 443.25 120.5 457.875 120.5Z"/>
  <path d="M529.0 91.75C526.0 106.875 519.5 111.25 513.875 111.25C503.5 111.25 498.25 99.25 498.25 82.25V82.0H531.25C531.25 63.75 524.375 50.0 509.75 50.0C494.875 50.0 486.125 66.75 486.125 86.5C486.125 107.125 495.0 120.5 509.125 120.5C520.875 120.5 529.375 111.875 532.0 91.75ZM509.75 55.25C517.125 55.25 519.25 64.875 519.25 76.875H498.375C499.125 64.375 502.25 55.25 509.75 55.25Z"/>
  <path d="M561.625 120.5C571.25 120.5 579.625 114.625 579.625 102.25C579.625 92.75 574.25 87.375 563.0 78.5C554.25 71.625 551.0 68.875 551.0 63.625C551.0 58.625 554.25 55.25 559.25 55.25C567.625 55.25 573.125 63.0 574.625 72.75H577.375L576.875 50.875H574.0L573.25 53.625C572.875 55.125 571.625 55.75 570.0 54.25C567.75 52.375 563.875 50.0 558.25 50.0C548.375 50.0 540.875 56.75 540.875 67.125C540.875 74.25 544.5 79.125 555.125 87.5C566.75 96.875 569.375 99.25 569.375 104.875C569.375 111.25 566.25 115.25 560.375 115.25C551.75 115.25 544.625 107.0 542.75 92.125H540.0L540.875 119.125H543.625L544.625 116.625C545.375 115.125 546.375 114.75 548.0 116.0C550.625 117.875 555.25 120.5 561.625 120.5Z"/>
</svg>