<svg xmlns="http://www.w3.org/2000/svg" viewBox="0 0 262.375 172.000" fill="currentColor">
  <path d="M39.5 17.25 37.625 15.5 18.625 24.75 19.875 27.5C27.375 23.75 27.375 25.375 27.375 33.375V105.625C27.375 113.625 26.125 115.5 18.5 115.5V118.5H48.25V115.5C40.625 115.5 39.5 113.625 39.5 105.625Z"/>
  <path d="M62.875 147.75C74.625 147.375 79.75 134.875 84.875 117.75L100.625 64.625C102.875 56.875 105.125 55.25 110.125 55.25V52.25H89.5V55.25C97.625 55.25 97.625 56.875 95.5 64.625L85.125 101.375H84.5L74.0 64.625C71.75 56.875 71.75 55.25 80.0 55.25V52.25H50.75V55.25C56.25 55.25 58.5 56.875 61.0 64.625L76.5 114.0C77.5 118.75 77.875 123.625 77.5 125.875C75.25 134.5 72.625 139.375 69.375 139.375C67.5 139.375 66.375 138.75 64.875 136.5C63.5 134.625 61.875 132.75 58.75 132.75C55.25 132.75 52.5 135.0 52.5 139.125C52.5 144.25 57.0 147.75 62.875 147.75Z"/>
  <path d="M151.5 50.0C144.625 50.0 138.5 57.0 135.0 63.625H134.625V51.625L132.375 49.75L123.875 53.25L113.875 57.25L115.125 60.125C122.625 57.0 122.625 58.75 122.625 67.125V105.625C122.625 113.625 121.375 115.5 114.125 115.5V118.5H147.875V115.375C136.5 115.375 134.625 113.375 134.625 104.875V71.625C137.25 64.0 140.625 59.875 143.5 59.875C145.0 59.875 145.625 60.375 147.25 62.0C148.875 63.75 149.875 64.625 152.125 64.625C155.375 64.625 158.25 61.5 158.25 56.625C158.25 52.5 155.875 50.0 151.5 50.0Z"/>
  <path d="M184.25 51.625 182.125 49.75 163.75 57.125 164.875 60.0C172.125 57.0 172.25 58.75 172.25 67.125V105.625C172.25 113.625 171.0 115.5 163.375 115.5V118.5H193.125V115.5C185.5 115.5 184.25 113.625 184.25 105.625Z"/>
  <path d="M177.188 37.750C171.947 37.750 169.125 30.831 169.125 26.988C169.125 22.375 177.188 22.375 177.188 22.375C177.188 22.375 185.250 22.375 185.250 26.988C185.250 30.831 182.428 37.750 177.188 37.750Z"/>
  <path d="M222.125 120.5C233.375 120.5 242.5 111.75 243.875 91.0H240.875C238.625 106.75 232.25 111.0 226.625 111.0C216.375 111.0 211.375 98.0 211.375 81.75C211.375 67.625 215.125 55.25 224.125 55.25C227.875 55.25 230.25 57.375 230.25 61.625C230.25 64.25 229.375 66.75 229.375 68.875C229.375 72.0 231.375 74.625 235.25 74.625C239.5 74.625 241.875 71.5 241.875 66.25C241.875 56.875 234.75 50.0 224.25 50.0C208.125 50.0 199.0 65.75 199.0 86.5C199.0 106.5 207.5 120.5 222.125 120.5Z"/>
</svg>