<!-- Lyric isotype — dark (#2b2a25) on light (#f5f3ef) -->
<svg xmlns="http://www.w3.org/2000/svg" viewBox="0 0 200 200">
  <rect width="200" height="200" fill="#f5f3ef"/>
  <g transform="translate(50, 50) scale(1.78571)">
    <path
      fill="#2b2a25"
      d="M28.85,56h-1.7A10.18,10.18,0,0,0,17,45.82h-.38C7.92,45.82.45,39.17,0,30.51a16.13,16.13,0,0,1,16.1-16.93h23.4A13,13,0,0,1,52.59,25.74,12.74,12.74,0,0,1,39.88,39H16.45a9.55,9.55,0,0,1-9.64-8.69,9.35,9.35,0,0,1,9.31-10H39.67a6.07,6.07,0,0,1,6.09,5.16,5.94,5.94,0,0,1-5.88,6.72H16.27A2.64,2.64,0,0,1,13.59,30a2.55,2.55,0,0,1,2.53-2.81H39.88a.85.85,0,0,0,0-1.69H16.31a4.36,4.36,0,0,0-4.41,3.81,4.25,4.25,0,0,0,4.22,4.67H39.61a7.82,7.82,0,0,0,7.84-6.63,7.65,7.65,0,0,0-7.57-8.64H16.12a11,11,0,0,0-11,11.46,11.28,11.28,0,0,0,11.39,10.6h23A14.7,14.7,0,0,0,54.28,27a14.44,14.44,0,0,0-14.4-15.15H39A11.88,11.88,0,0,1,27.15,0h1.7A10.18,10.18,0,0,0,39,10.18h.38c8.67,0,16.14,6.65,16.56,15.31A16.13,16.13,0,0,1,39.88,42.42H16.47A13,13,0,0,1,3.41,30.26,12.72,12.72,0,0,1,16.12,17H39.55a9.56,9.56,0,0,1,9.64,8.7,9.35,9.35,0,0,1-9.31,10H16.33a6.09,6.09,0,0,1-6.1-5.16,6,6,0,0,1,5.89-6.72H39.73A2.65,2.65,0,0,1,42.41,26a2.55,2.55,0,0,1-2.53,2.81H16.12a.85.85,0,0,0,0,1.7H39.69a4.38,4.38,0,0,0,4.41-3.82,4.26,4.26,0,0,0-4.22-4.67H16.39a7.81,7.81,0,0,0-7.84,6.63,7.64,7.64,0,0,0,7.57,8.64H39.88a11,11,0,0,0,11-11.46,11.28,11.28,0,0,0-11.39-10.6h-23A14.69,14.69,0,0,0,1.72,29a14.44,14.44,0,0,0,14.4,15.15H17A11.88,11.88,0,0,1,28.85,56Z"
    />
  </g>
</svg>
